<?xml version="1.0" standalone="no"?>
<!DOCTYPE svg PUBLIC "-//W3C//DTD SVG 20010904//EN"
 "http://www.w3.org/TR/2001/REC-SVG-20010904/DTD/svg10.dtd">
<svg version="1.0" xmlns="http://www.w3.org/2000/svg"
 width="375.000000pt" height="450.000000pt" viewBox="0 0 375.000000 450.000000"
 preserveAspectRatio="xMidYMid meet">
<metadata>
Created by potrace 1.16, written by Peter Selinger 2001-2019
</metadata>
<g transform="translate(0.000000,450.000000) scale(0.100000,-0.100000)"
fill="#000000" stroke="none">
<path d="M2343 3971 c-11 -27 -33 -57 -47 -67 -27 -17 -29 -17 -72 4 -40 20
-61 22 -193 22 -109 0 -158 4 -184 15 -76 32 -166 10 -185 -44 -13 -37 -21
-38 -52 -6 -13 13 -42 32 -65 41 -41 15 -69 13 -126 -11 -12 -4 -23 3 -38 28
-41 67 -114 76 -168 22 -34 -34 -35 -38 -31 -92 4 -48 10 -61 37 -85 24 -22
41 -28 75 -28 27 0 48 6 56 16 29 34 47 35 79 4 25 -25 37 -30 79 -30 27 0 68
7 91 15 50 17 50 16 16 -85 -29 -85 -32 -146 -9 -171 15 -17 14 -20 -20 -40
-30 -17 -36 -27 -34 -47 2 -20 11 -28 36 -34 17 -5 32 -14 32 -20 0 -6 -18
-28 -40 -48 -44 -40 -51 -65 -21 -75 52 -16 46 -78 -8 -90 -32 -7 -57 -37 -46
-55 3 -6 1 -10 -4 -10 -6 0 -11 -21 -11 -47 0 -27 -7 -75 -15 -108 -8 -33 -14
-77 -15 -97 l0 -38 -60 0 -60 0 0 -34 c0 -44 -20 -64 -73 -70 -150 -17 -577
-49 -684 -50 -148 -1 -175 4 -191 38 -7 16 -25 29 -49 35 -55 16 -69 14 -100
-13 -26 -23 -28 -29 -28 -103 0 -98 23 -146 73 -151 28 -3 41 5 96 57 34 34
65 58 68 55 4 -3 17 0 30 7 17 9 116 15 358 20 184 4 366 10 403 14 l68 7 -7
-40 -6 -41 38 -6 c81 -14 83 -17 64 -99 -7 -32 -5 -43 12 -67 27 -37 20 -61
-42 -132 -52 -61 -59 -85 -35 -127 8 -14 14 -44 15 -66 0 -36 -7 -49 -55 -103
-61 -69 -70 -106 -35 -151 29 -37 25 -80 -12 -130 -18 -24 -46 -60 -62 -81
l-29 -38 22 -52 c17 -37 21 -62 16 -88 -11 -64 -16 -72 -55 -87 -41 -17 -44
-22 -55 -91 -7 -41 -21 -63 -110 -169 l-40 -47 2 -101 c1 -76 8 -127 30 -206
28 -104 28 -105 63 -112 292 -62 377 -78 445 -87 106 -13 586 3 675 23 145 32
401 121 520 181 101 51 402 215 418 227 8 7 12 39 12 94 l0 84 -94 69 c-109
81 -126 102 -126 154 0 20 -7 54 -17 75 -12 27 -16 63 -15 134 1 73 -3 111
-18 154 -14 41 -20 84 -20 149 0 69 -6 112 -25 175 -29 97 -30 111 -10 150 14
27 13 33 -11 86 -23 50 -25 65 -19 123 6 57 3 75 -20 136 -61 161 -74 215 -94
390 -24 204 -42 254 -97 266 -43 8 -54 17 -54 43 0 30 18 46 51 46 52 0 49 35
-7 65 -37 20 -59 49 -49 64 3 5 19 12 35 16 42 9 41 46 -2 76 -45 31 -51 43
-28 51 25 9 25 14 -1 110 -16 59 -31 88 -60 122 -21 24 -39 50 -39 58 0 7 18
40 40 73 22 33 40 65 40 72 0 17 -50 53 -74 53 -17 0 -27 -12 -43 -49z m-385
-68 c-52 -103 -60 -127 -61 -198 l-2 -75 -43 0 -44 0 7 53 c10 67 29 131 50
163 22 33 108 86 93 57z m236 -319 c22 -8 20 -27 -5 -50 -24 -21 -116 -26
-221 -11 -56 8 -58 10 -58 38 l0 29 134 0 c74 0 141 -3 150 -6z m18 -161 c4
-30 0 -42 -19 -61 -24 -24 -28 -24 -154 -20 -74 2 -133 8 -140 15 -7 7 -8 28
-4 57 l7 46 153 0 153 0 4 -37z m192 5 c13 -13 27 -33 31 -45 5 -19 1 -25 -22
-34 -69 -26 -153 9 -153 65 0 32 7 36 66 36 41 0 59 -5 78 -22z m-554 -22 c0
-59 -42 -81 -145 -74 -43 3 -50 6 -53 26 -2 14 7 33 27 52 27 28 35 30 100 30
l71 0 0 -34z m-10 -159 c0 -54 -28 -71 -121 -76 -77 -3 -79 -3 -78 20 2 65 36
88 132 89 l67 0 0 -33z m370 -11 l0 -44 -49 -12 c-69 -16 -200 -17 -231 0 -33
17 -40 29 -40 68 l0 32 160 0 160 0 0 -44z m230 -11 l0 -55 -54 0 c-30 0 -66
4 -81 10 -29 11 -46 47 -38 79 5 19 12 21 89 21 l84 0 0 -55z m-466 -137 c0
-16 -1 -86 -2 -158 l-2 -130 -66 0 -66 0 3 144 c5 171 8 178 83 174 48 -3 51
-4 50 -30z m207 -120 c0 -82 -1 -153 -1 -158 0 -7 -24 -10 -62 -8 l-63 3 -3
158 -3 158 66 -3 66 -3 0 -147z m168 139 c15 -19 26 -305 16 -439 l-7 -108
-49 0 -49 0 0 98 c0 55 -3 179 -6 278 l-7 179 45 3 c29 1 50 -3 57 -11z m-600
-14 c0 -10 -10 -76 -22 -148 l-22 -130 -98 2 c-55 1 -101 4 -103 6 -4 4 32
247 41 275 3 8 33 12 105 12 89 0 100 -2 99 -17z m742 -78 c4 -49 9 -167 13
-261 l7 -170 -37 -12 c-21 -6 -40 -9 -44 -7 -4 2 -10 106 -14 229 -3 124 -9
246 -13 271 l-6 46 44 -3 44 -3 6 -90z m80 73 c7 -13 16 -90 20 -173 4 -82 11
-181 15 -220 6 -62 4 -73 -15 -95 -20 -24 -22 -24 -35 -7 -17 22 -24 104 -29
340 -4 165 -3 177 14 177 10 0 24 -10 30 -22z m-475 -345 c-3 -10 -13 -56 -21
-103 -25 -139 -21 -130 -60 -130 -42 0 -43 6 -19 125 9 44 18 90 20 103 4 18
11 22 45 22 34 0 39 -3 35 -17z m-205 -80 c14 -45 -5 -118 -29 -108 -40 17
-65 16 -111 -4 -70 -30 -235 -30 -297 -1 -23 12 -45 28 -48 37 -8 20 72 99
106 106 13 3 101 4 195 3 l173 -1 11 -32z m786 -121 c15 -10 36 -113 26 -123
-17 -15 -406 -41 -685 -46 -270 -5 -435 2 -555 23 -29 6 -33 10 -33 39 0 18 8
43 18 55 l18 22 100 -16 c207 -34 465 -46 520 -26 15 6 38 22 50 35 22 23 30
25 131 26 59 1 137 5 173 9 92 10 223 11 237 2z m-857 -233 c0 -11 -18 -125
-40 -252 -88 -512 -180 -1086 -180 -1120 0 -32 -14 -56 -25 -45 -7 6 36 291
130 863 47 286 88 532 91 548 6 32 24 37 24 6z m386 -36 c-3 -27 -21 -255 -41
-508 -19 -253 -40 -512 -45 -575 -12 -135 -38 -263 -51 -255 -14 9 -11 110 10
310 38 365 113 1050 117 1063 9 31 16 7 10 -35z m255 -603 c-6 -179 -11 -398
-11 -487 0 -100 -4 -163 -10 -163 -19 0 -22 54 -11 213 6 89 13 357 16 596 3
239 9 440 13 445 12 19 14 -270 3 -604z m148 564 c25 -32 28 -101 6 -144 -21
-41 -74 -42 -104 -4 -31 39 -29 117 4 149 32 33 68 32 94 -1z m-213 -29 c27
-42 28 -95 2 -145 -20 -39 -28 -45 -58 -48 -52 -4 -82 31 -88 104 -4 50 -2 58
24 85 37 39 96 41 120 4z m-368 4 c32 -11 62 -59 62 -98 0 -29 -23 -83 -43
-99 -9 -8 -33 -14 -53 -15 -52 -1 -94 46 -94 106 0 60 23 88 96 117 1 0 15 -5
32 -11z m-374 -18 c51 -56 37 -153 -26 -184 -33 -16 -40 -16 -71 -3 -40 16
-47 25 -58 74 -9 43 8 92 42 116 32 22 92 21 113 -3z m-250 -234 c-19 -82 -74
-316 -123 -520 -49 -205 -92 -387 -96 -406 -7 -32 -8 -34 -21 -16 -8 10 -17
34 -20 52 -6 30 -2 39 27 69 34 35 34 35 37 147 4 110 4 111 38 151 34 39 34
40 34 140 0 101 0 102 38 156 37 54 37 56 38 155 0 64 5 109 14 125 25 46 61
102 65 98 2 -1 -12 -70 -31 -151z m1360 1 c21 -30 21 -112 0 -132 -25 -25 -52
-19 -74 17 -26 41 -25 78 1 111 25 32 53 33 73 4z m-154 -38 c16 -16 20 -33
20 -80 0 -51 -4 -65 -25 -85 -27 -28 -37 -30 -68 -13 -36 19 -46 40 -47 96 0
43 5 57 25 77 29 30 68 32 95 5z m-235 -45 c46 -45 28 -157 -29 -183 -59 -27
-116 27 -116 108 0 84 90 130 145 75z m-785 0 c16 -8 32 -25 35 -36 13 -39 7
-99 -12 -132 -16 -27 -26 -32 -62 -35 -120 -9 -154 173 -38 207 44 13 45 13
77 -4z m433 -26 c34 -42 15 -154 -32 -179 -51 -27 -113 5 -132 69 -9 30 -8 44
5 74 27 65 118 85 159 36z m780 -189 c21 -41 18 -113 -6 -137 -23 -23 -62 -9
-77 27 -24 59 8 156 49 148 9 -2 24 -19 34 -38z m-207 -38 c22 -14 34 -51 34
-102 0 -41 -5 -56 -25 -75 -54 -55 -115 -7 -115 90 0 35 6 51 25 70 24 25 59
32 81 17z m-230 -73 c26 -28 26 -124 1 -162 -14 -22 -25 -27 -56 -27 -56 0
-91 43 -91 111 0 40 5 55 25 74 32 33 93 34 121 4z m-817 -25 c15 -19 21 -41
21 -80 0 -89 -64 -139 -131 -104 -45 25 -65 123 -33 168 34 49 111 57 143 16z
m436 -19 c21 -20 25 -34 25 -79 0 -65 -26 -102 -78 -112 -28 -6 -37 -2 -66 29
-56 60 -55 125 4 165 43 29 85 28 115 -3z m844 -119 c42 -44 36 -159 -7 -168
-49 -11 -82 31 -82 102 0 30 6 47 25 65 30 31 36 31 64 1z m-224 -91 c20 -19
25 -34 25 -75 0 -134 -107 -169 -141 -46 -15 55 3 110 44 130 42 20 44 20 72
-9z m-254 -94 c17 -21 20 -36 17 -83 -5 -72 -26 -98 -79 -98 -29 0 -42 6 -58
26 -47 59 -31 152 30 178 40 17 64 11 90 -23z m591 -18 c28 -20 63 -54 79 -75
l28 -39 -222 -113 c-239 -122 -291 -143 -509 -207 -132 -39 -156 -42 -313 -50
-370 -17 -491 -11 -775 37 -216 38 -214 37 -227 65 -17 35 -37 163 -30 191 8
29 104 148 120 148 7 0 20 -40 32 -102 18 -90 24 -104 45 -115 27 -13 255 -47
385 -58 112 -9 461 12 576 35 53 11 149 38 214 61 168 57 483 199 514 230 14
15 28 27 30 28 2 0 26 -16 53 -36z m-1462 17 c26 -14 43 -73 35 -120 -18 -105
-131 -121 -171 -24 -22 53 -18 82 20 120 36 36 78 44 116 24z m470 -40 c15
-15 20 -33 20 -73 0 -77 -37 -127 -96 -127 -68 0 -109 70 -84 145 22 66 116
99 160 55z"/>
<path d="M2280 2842 c0 -183 3 -222 15 -232 12 -10 18 -10 30 0 12 10 15 46
15 204 0 198 -7 237 -43 244 -16 3 -17 -14 -17 -216z"/>
<path d="M1556 3023 c-15 -74 -27 -155 -24 -158 2 -2 37 -7 79 -11 l75 -6 15
96 c8 53 13 99 10 101 -2 3 -37 5 -77 5 -71 0 -73 -1 -78 -27z"/>
<path d="M2442 2846 c3 -222 13 -274 37 -204 17 48 -6 405 -27 413 -12 4 -13
-27 -10 -209z"/>
</g>
</svg>
