<?xml version="1.0" standalone="no"?>
<!DOCTYPE svg PUBLIC "-//W3C//DTD SVG 20010904//EN"
 "http://www.w3.org/TR/2001/REC-SVG-20010904/DTD/svg10.dtd">
<svg version="1.0" xmlns="http://www.w3.org/2000/svg"
 width="1227.000000pt" height="427.000000pt" viewBox="0 0 1227.000000 427.000000"
 preserveAspectRatio="xMidYMid meet">
<metadata>
Created by potrace 1.16, written by Peter Selinger 2001-2019
</metadata>
<g transform="translate(0.000000,427.000000) scale(0.100000,-0.100000)"
fill="#000000" stroke="none">
<path d="M6285 3680 c-3 -5 -25 -10 -49 -10 -36 0 -45 -4 -54 -25 -7 -14 -12
-39 -12 -55 l0 -29 50 31 c41 26 56 30 91 25 42 -6 89 -32 97 -55 3 -9 -15
-12 -65 -10 -55 2 -79 -2 -125 -22 -32 -14 -58 -29 -58 -34 0 -4 8 -5 18 -1 9
3 31 9 47 11 17 3 -10 -9 -60 -26 -49 -18 -99 -33 -110 -35 -11 -1 -23 -3 -26
-4 -28 -5 -16 -81 12 -81 16 0 19 -8 19 -42 1 -39 5 -46 45 -75 24 -18 48 -33
52 -33 14 0 33 -39 23 -45 -20 -12 -10 -26 11 -14 15 8 24 8 32 0 11 -11 -63
-48 -182 -93 -71 -27 -145 -96 -168 -156 -16 -42 -18 -84 -18 -394 l0 -346 24
-26 c27 -29 83 -35 112 -13 36 28 39 50 39 351 0 241 2 296 13 296 11 0 15
-32 20 -137 14 -272 10 -326 -28 -463 -19 -68 -40 -158 -47 -198 l-12 -74 32
-29 c18 -16 37 -27 42 -24 6 4 10 26 10 51 0 35 3 44 18 44 24 0 144 -20 153
-25 4 -3 1 -26 -6 -52 -7 -27 -16 -65 -20 -87 -7 -43 8 -41 -125 -20 l-40 7 0
-41 c0 -45 2 -46 83 -58 26 -3 49 -9 51 -13 2 -3 -2 -37 -9 -76 -8 -52 -16
-70 -27 -69 -8 1 -35 4 -60 8 -45 7 -45 6 -52 -25 -3 -17 -4 -34 -1 -39 2 -4
27 -10 55 -14 59 -8 60 -12 30 -109 l-20 -65 -36 10 c-49 13 -64 5 -64 -36 0
-32 3 -36 36 -42 23 -4 50 -22 79 -50 38 -40 48 -44 90 -44 40 0 52 5 81 34
l34 34 0 323 c0 178 4 330 9 338 26 41 31 -8 31 -320 0 -351 2 -364 60 -394
35 -18 83 -19 113 -3 18 9 24 7 41 -15 l19 -25 38 25 c32 21 37 28 28 44 -9
19 -11 19 -49 -1 l-40 -20 -23 37 c-29 47 -57 117 -57 142 0 16 10 21 55 26
l55 7 0 253 0 253 27 7 c66 16 77 48 53 162 -10 48 -21 101 -26 117 l-7 30 28
-22 c38 -30 89 -29 120 3 l25 24 0 344 c0 374 -2 394 -57 465 -28 37 -107 92
-133 92 -8 0 -33 9 -54 21 -26 14 -41 17 -45 10 -5 -7 -22 -1 -48 16 -23 15
-40 30 -38 34 3 4 25 2 51 -3 25 -6 48 -8 51 -5 11 12 -10 47 -28 47 -24 0
-24 6 2 33 26 27 39 60 39 97 0 16 7 35 15 44 46 46 47 167 1 199 -6 4 -37 7
-69 5 l-59 -2 -17 40 c-27 58 -65 94 -100 94 -16 0 -33 -4 -36 -10z m249 -196
c19 -19 20 -30 4 -38 -8 -4 -9 -8 -3 -11 39 -20 40 -22 21 -62 -11 -21 -18
-51 -17 -68 1 -21 -1 -26 -7 -16 -7 10 -11 10 -17 1 -4 -6 -2 -17 4 -23 20
-20 -6 -37 -41 -25 -29 10 -30 13 -24 52 10 58 -11 123 -44 135 -82 30 -203
-3 -215 -60 -4 -17 -2 -42 3 -57 16 -43 22 -101 10 -108 -6 -4 -15 1 -20 10
-5 9 -16 16 -25 16 -10 0 -33 11 -53 25 -36 25 -36 26 -33 82 2 32 9 63 16 71
21 20 119 52 162 52 22 0 53 7 70 16 24 12 31 13 40 2 12 -15 39 -15 75 -1 22
9 53 19 72 22 4 0 14 -6 22 -15z m-89 -421 c21 -10 34 -22 31 -30 -4 -8 2 -13
16 -13 20 0 20 -3 14 -71 -9 -87 -14 -101 -35 -95 -9 2 -33 7 -55 11 l-39 6 7
52 c3 29 10 53 14 55 5 1 7 25 4 52 -2 28 -2 50 1 50 4 0 22 -8 42 -17z m-167
-100 c17 -25 23 -78 13 -135 0 -5 -26 -8 -56 -8 l-55 0 0 79 c0 87 -5 80 67
90 6 0 20 -11 31 -26z m39 -368 c-4 -66 -6 -198 -3 -294 4 -144 2 -179 -10
-203 -9 -17 -19 -27 -22 -23 -4 4 -12 -10 -18 -32 -13 -42 -8 -42 -122 -23
-68 11 -73 14 -68 34 2 11 8 49 12 84 l7 62 83 0 c46 0 87 0 92 1 4 0 10 -10
14 -23 8 -32 9 90 1 255 l-6 135 -70 7 c-69 7 -69 7 -64 35 3 15 9 50 13 79 4
28 10 54 15 57 5 2 31 2 58 -2 l50 -6 4 -62 c3 -52 4 -47 6 29 l2 90 18 -40
c15 -35 16 -55 8 -160z m160 181 c1 -1 5 -43 9 -94 l7 -92 -72 0 -71 0 2 -107
c1 -78 3 -89 5 -41 l4 66 65 4 c38 2 69 -1 74 -7 5 -6 12 -52 16 -103 l7 -92
-52 -2 c-112 -4 -106 -5 -107 25 -1 15 -4 30 -8 34 -3 3 -5 -20 -4 -53 1 -32
3 -51 6 -41 3 14 15 17 65 17 34 0 72 3 84 6 20 5 22 1 28 -53 4 -32 7 -71 8
-88 l2 -30 -90 4 c-52 2 -93 8 -97 15 -5 7 -8 6 -8 -4 -1 -8 -6 -4 -13 10 -8
17 -11 105 -11 280 1 243 2 258 24 308 l23 53 51 -6 c28 -4 52 -8 53 -9z m158
-19 c3 -7 4 -145 3 -307 l-3 -295 -24 85 c-22 82 -23 93 -16 307 6 182 10 223
22 223 7 0 16 -6 18 -13z m-377 -263 c8 -2 12 -31 12 -97 l0 -94 -81 -7 c-45
-4 -84 -5 -86 -2 -5 4 15 177 22 203 4 11 95 9 133 -3z m285 -494 c0 -30 -2
-65 -2 -77 -1 -22 -5 -23 -91 -23 l-90 0 0 80 0 81 93 -3 92 -3 -2 -55z m-1
-251 c2 -48 -1 -83 -7 -85 -5 -2 -39 -5 -75 -7 l-64 -2 -12 80 c-8 59 -8 82 0
87 6 4 43 8 83 8 l71 0 4 -81z m12 -191 c3 -18 7 -58 10 -89 l6 -56 -57 -12
c-31 -6 -57 -10 -58 -8 -5 6 -43 172 -41 174 2 2 30 7 62 12 32 5 62 9 66 10
4 0 9 -14 12 -31z"/>
<path d="M11335 3590 c-10 -11 -29 -20 -42 -20 -36 0 -60 -16 -67 -44 -3 -14
-17 -36 -31 -50 -20 -20 -25 -35 -25 -74 0 -47 32 -160 48 -172 4 -3 15 -24
24 -47 19 -51 8 -87 -32 -101 -63 -23 -98 -32 -119 -32 -47 0 -124 -63 -141
-116 -7 -19 -18 -38 -26 -42 -37 -21 -43 -76 -44 -419 l0 -333 59 0 c32 0 73
3 90 6 l31 7 0 278 c0 241 2 279 15 279 20 0 20 -228 0 -625 -8 -159 -15 -338
-15 -398 0 -105 1 -108 25 -119 l25 -11 0 -292 c0 -317 4 -346 55 -379 46 -30
80 -31 128 -3 33 20 46 35 55 65 9 28 12 185 12 541 0 327 3 501 10 501 7 0
10 -176 10 -507 0 -464 2 -511 18 -543 9 -19 28 -40 40 -46 13 -7 29 -17 35
-23 17 -17 53 -13 97 9 67 34 70 50 70 386 0 284 1 293 20 299 19 6 20 16 21
253 1 239 1 246 17 210 15 -32 23 -38 58 -44 52 -8 81 7 100 51 8 19 14 36 14
38 0 2 -41 7 -92 11 -51 4 -95 9 -98 12 -5 6 -28 429 -29 552 -1 49 2 62 14
62 13 0 15 -38 15 -279 l0 -278 46 -7 c26 -3 69 -6 95 -6 l49 0 0 318 c0 337
-2 352 -51 448 -10 21 -19 43 -19 50 0 6 -11 16 -25 22 -14 6 -25 16 -25 21 0
16 -65 51 -94 51 -15 0 -36 5 -47 11 -15 8 -25 7 -37 -2 -14 -11 -15 -11 -4 1
10 12 5 21 -29 51 l-42 37 26 32 c15 17 27 35 27 40 0 5 5 65 11 134 9 111 9
128 -5 142 -9 8 -14 19 -11 23 10 16 -44 54 -76 53 -18 0 -49 8 -70 19 -46 23
-42 23 -64 -1z m69 -15 c11 -8 36 -15 56 -15 39 0 52 -11 82 -66 15 -27 16
-45 8 -149 -11 -128 -30 -181 -30 -81 0 31 -5 66 -11 77 -7 15 -7 29 0 51 9
26 8 35 -5 50 -20 21 -98 25 -138 7 -19 -9 -29 -9 -39 -1 -10 8 -23 8 -50 0
-39 -12 -46 -25 -46 -83 -1 -133 -3 -137 -31 -56 -23 68 -25 134 -5 151 9 8
25 30 35 51 20 38 36 49 75 49 12 0 28 7 35 15 16 19 39 19 64 0z"/>
<path d="M3539 3513 c-40 -36 -80 -103 -92 -154 -9 -38 8 -128 28 -147 17 -16
17 -16 1 10 -12 17 -18 49 -18 90 -1 73 28 142 82 193 28 27 38 30 92 30 60 0
60 0 103 -49 57 -66 76 -138 51 -190 -24 -50 -37 -45 -35 14 2 59 -11 80 -37
59 -14 -11 -19 -10 -36 14 -33 45 -55 35 -87 -35 -15 -35 -35 -69 -44 -77 -10
-7 -17 -21 -17 -31 0 -10 -7 -23 -15 -30 -22 -18 -19 -35 15 -73 17 -19 30
-41 30 -49 0 -9 11 -32 25 -52 23 -34 24 -36 4 -36 -25 0 -35 -25 -19 -45 12
-14 15 -14 30 0 19 17 48 19 69 6 13 -8 13 -12 0 -27 -12 -15 -10 -15 13 1 47
34 47 65 0 65 -22 0 -24 2 -10 13 9 6 26 30 37 52 l22 40 -6 -185 c-6 -207
-22 -482 -31 -549 -5 -40 -4 -44 10 -32 9 8 16 25 17 40 0 24 1 24 14 -9 7
-19 14 -44 14 -54 1 -18 0 -18 -19 -1 -13 12 -20 14 -20 5 0 -7 -7 -10 -15 -7
-8 4 -17 2 -20 -3 -9 -15 -61 -12 -73 3 -6 7 -14 31 -17 52 -8 59 -35 545 -35
636 0 85 -4 90 -50 64 -14 -8 -42 -14 -62 -15 -104 -1 -229 -89 -261 -185 -22
-63 -23 -202 -2 -229 20 -27 20 -151 0 -190 -19 -36 -21 -285 -3 -319 26 -51
86 -62 132 -26 l26 21 -6 -57 -7 -58 31 5 31 4 3 -438 3 -438 31 -31 c39 -38
97 -49 142 -25 63 32 62 28 62 541 0 407 2 465 15 465 13 0 15 -57 16 -452 0
-324 4 -463 12 -488 15 -42 68 -80 112 -80 44 0 97 38 112 80 8 25 12 156 12
451 l1 416 30 -5 c34 -5 35 1 21 75 l-8 42 29 -24 c37 -32 79 -32 115 -1 28
24 28 24 31 170 3 120 1 149 -12 168 -21 30 -22 166 -1 194 19 26 19 145 0
212 -33 111 -128 186 -257 202 -113 14 -127 32 -84 111 13 24 29 75 36 113 17
101 2 151 -64 221 -50 53 -54 55 -104 55 -46 0 -57 -4 -93 -37z m-175 -789
c20 -53 -3 -532 -25 -518 -10 6 -12 517 -2 527 11 11 20 8 27 -9z"/>
<path d="M8730 3512 c-34 -13 -49 -27 -65 -57 -11 -22 -23 -42 -27 -45 -3 -3
-9 -37 -13 -76 -8 -80 3 -130 41 -181 30 -40 30 -44 -6 -68 -29 -19 -80 -85
-80 -103 0 -5 15 -13 33 -19 l32 -9 -45 -15 c-41 -14 -45 -19 -54 -60 -5 -24
-9 -138 -9 -254 -1 -197 6 -274 39 -435 4 -22 3 -21 -9 5 -26 56 -50 335 -44
500 9 206 13 230 46 246 21 10 23 13 9 16 -22 5 -22 5 2 53 11 22 18 40 15 40
-4 0 -31 -11 -60 -26 -58 -27 -93 -62 -128 -128 -21 -40 -22 -52 -25 -409 l-3
-368 30 -29 c34 -35 68 -38 104 -10 33 26 45 26 22 0 -10 -11 -32 -24 -49 -28
l-31 -8 -17 -290 c-16 -276 -31 -423 -49 -471 -11 -29 13 -53 53 -53 25 0 29
-3 25 -19 -3 -12 3 -27 15 -38 16 -15 21 -15 28 -3 6 8 10 26 10 38 0 15 7 26
20 29 20 5 20 14 20 424 0 231 3 419 8 419 4 0 6 -204 4 -453 -3 -504 -2 -515
57 -554 42 -28 76 -29 119 -3 30 19 40 33 57 85 6 17 9 14 20 -18 16 -47 29
-62 65 -77 59 -25 124 7 149 73 7 18 12 190 13 480 l3 452 2 -416 3 -417 86
-7 c47 -4 90 -3 94 2 5 4 5 26 0 48 -5 22 -19 108 -31 190 -12 83 -28 188 -35
235 -7 47 -16 144 -20 215 l-7 130 -30 15 c-17 8 -33 21 -35 29 -3 10 5 7 23
-7 37 -30 76 -28 109 4 l26 27 0 357 c0 392 -3 412 -61 483 -30 37 -93 79
-137 92 l-23 7 20 -41 c25 -49 26 -51 4 -51 -14 0 -12 -5 9 -23 26 -20 29 -31
39 -127 19 -171 -4 -541 -37 -615 -18 -39 -18 -37 7 102 18 95 22 157 22 323
0 113 -4 227 -9 254 -9 47 -11 50 -54 64 l-45 15 30 10 c39 13 39 12 25 39
-18 34 -61 78 -93 94 l-28 15 28 23 c16 13 39 45 52 71 19 39 23 58 19 121
l-3 75 -67 65 c-64 61 -69 64 -115 63 -26 0 -68 -8 -93 -17z m192 -44 c71 -68
78 -83 77 -160 -1 -103 -12 -109 -32 -17 -24 114 -33 126 -104 132 -32 3 -69
7 -83 9 -22 3 -25 0 -24 -29 1 -18 -2 -30 -7 -27 -5 3 -9 14 -9 25 0 21 -22
26 -38 7 -5 -7 -12 -31 -15 -53 -3 -22 -12 -64 -19 -94 l-14 -54 -13 31 c-26
61 4 188 55 242 22 22 73 38 125 39 43 1 51 -3 101 -51z m-177 -440 c11 -17
32 -40 47 -51 25 -19 28 -19 52 -4 13 9 30 32 37 52 28 75 42 46 100 -205 28
-119 32 -157 36 -320 2 -102 0 -216 -6 -255 -7 -54 -8 -25 -4 130 6 241 -9
365 -75 595 l-16 55 -7 -65 c-12 -111 -38 -150 -60 -93 -8 22 -7 36 6 62 l16
33 -26 -6 c-14 -4 -34 -2 -45 4 -16 8 -20 8 -20 -4 0 -7 7 -16 15 -20 9 -3 15
-17 14 -33 -1 -36 -14 -70 -22 -57 -5 9 -77 205 -77 212 0 11 19 -5 35 -30z"/>
<path d="M4840 3477 c-49 -32 -96 -91 -106 -132 -3 -14 -10 -28 -15 -31 -5 -3
-9 -13 -9 -24 0 -26 53 -138 84 -180 25 -32 25 -36 10 -45 -9 -5 -28 -19 -43
-31 -14 -11 -65 -39 -112 -61 -157 -74 -191 -142 -187 -364 l3 -134 29 170
c15 94 32 180 37 192 5 13 27 43 50 68 41 44 69 54 98 36 10 -6 4 -12 -22 -20
-20 -7 -54 -29 -77 -49 l-41 -37 -19 -165 c-10 -91 -20 -247 -22 -348 l-3
-182 53 0 c29 0 62 4 72 10 15 8 20 6 25 -11 4 -11 5 -23 2 -25 -11 -11 -122
-23 -131 -14 -23 23 -28 4 -25 -102 4 -109 3 -113 -17 -116 -20 -3 -22 -11
-28 -105 -3 -56 -6 -186 -7 -289 -1 -157 1 -192 15 -212 25 -38 53 -42 85 -12
23 22 32 25 53 17 14 -5 28 -17 31 -25 4 -9 18 -16 32 -16 24 0 25 -2 25 -60
0 -33 6 -76 14 -94 27 -64 98 -90 160 -61 67 32 66 23 65 532 l0 458 -20 -78
c-19 -77 -37 -123 -45 -114 -2 2 3 21 11 41 14 32 41 147 58 246 3 14 3 1 1
-27 -4 -48 -2 -53 16 -53 20 0 21 4 16 63 -4 45 -1 33 14 -45 24 -131 53 -215
84 -247 20 -20 30 -22 60 -17 26 5 37 13 40 29 2 12 12 157 21 322 9 165 19
318 22 340 l7 40 18 -60 c13 -43 18 -93 18 -177 0 -139 1 -141 113 -137 71 2
72 2 75 -24 4 -29 -7 -34 -26 -15 -10 10 -17 10 -31 1 -13 -8 -35 -10 -70 -4
-29 4 -53 5 -56 1 -2 -3 5 -21 16 -39 18 -31 19 -40 9 -129 -10 -91 -29 -491
-30 -629 0 -56 2 -63 20 -63 11 0 20 4 20 8 0 5 24 4 53 -1 54 -10 241 13 259
31 9 9 -4 372 -23 622 -12 168 -17 193 -92 479 -46 171 -57 229 -57 291 0 159
-48 236 -189 303 -47 22 -98 50 -113 63 -15 12 -33 24 -40 27 -9 3 -6 10 9 21
14 11 20 22 16 33 -4 11 -3 14 5 9 8 -5 10 2 6 24 -5 25 -2 34 20 51 55 43 21
175 -70 272 -35 36 -37 37 -107 36 -63 -1 -78 -5 -117 -32z m232 -32 c49 -64
70 -109 76 -161 3 -34 0 -45 -19 -63 -15 -14 -28 -42 -34 -74 -6 -32 -15 -52
-24 -52 -10 0 -14 23 -15 95 -3 108 -10 133 -36 125 -10 -3 -25 2 -34 10 -15
15 -16 15 -16 -1 0 -14 -2 -14 -16 -3 -13 10 -17 10 -24 -1 -9 -14 -52 -25
-47 -12 3 9 -9 13 -25 7 -7 -2 -22 -5 -33 -7 -18 -3 -20 -10 -18 -91 2 -76 0
-87 -13 -77 -8 7 -14 19 -14 26 0 8 -4 14 -9 14 -5 0 -12 12 -16 28 -3 15 -13
35 -22 44 -16 18 -14 54 3 51 6 -1 11 10 11 25 0 35 58 118 94 132 16 7 34 19
40 26 9 11 31 14 83 12 l70 -3 38 -50z m-132 -400 c36 0 75 3 86 8 18 6 24 2
34 -22 6 -16 10 -54 8 -85 -2 -45 0 -56 16 -66 16 -10 16 -14 5 -21 -11 -7
-11 -11 -2 -17 14 -9 14 -72 1 -72 -5 0 -7 -14 -3 -31 6 -25 2 -36 -20 -59
-15 -16 -24 -33 -20 -40 4 -6 0 -22 -9 -35 -9 -13 -16 -36 -16 -51 0 -31 -36
-94 -53 -94 -19 1 -57 37 -57 54 0 9 -18 53 -40 98 -22 44 -38 83 -36 86 3 2
15 -16 28 -42 21 -44 23 -45 34 -24 9 17 9 32 -1 67 -7 25 -20 84 -30 131 -9
47 -23 110 -31 141 -21 83 -20 93 14 83 15 -5 56 -9 92 -9z"/>
<path d="M2283 3457 c-51 -17 -64 -26 -74 -51 -6 -17 -20 -49 -30 -72 -11 -22
-19 -51 -19 -65 0 -14 -5 -30 -12 -37 -13 -13 -23 -162 -11 -177 4 -6 20 -20
35 -32 l28 -21 -68 -12 c-110 -20 -196 -90 -230 -189 -13 -36 -18 -704 -6
-736 8 -19 55 -45 83 -45 11 0 35 13 53 29 l33 29 0 -155 c0 -148 1 -156 23
-173 22 -18 22 -19 22 -335 0 -351 1 -359 64 -389 45 -21 74 -20 113 4 64 39
63 31 63 540 0 402 2 460 15 460 13 0 15 -58 15 -462 0 -350 3 -469 13 -488
16 -32 73 -70 104 -70 38 0 87 27 106 59 15 26 17 65 17 341 l0 312 25 30 c24
29 25 34 25 175 l0 145 31 -26 c17 -14 39 -26 50 -26 28 0 75 26 83 45 12 32
7 700 -6 736 -34 99 -121 171 -230 189 -86 15 -105 35 -49 50 22 6 43 14 45
19 9 15 -14 172 -28 195 -8 11 -17 41 -21 65 -12 73 -109 162 -174 160 -14 0
-54 -10 -88 -22z m141 -6 c59 -33 104 -90 111 -141 4 -25 13 -55 21 -68 15
-22 37 -160 28 -174 -3 -4 -19 -11 -37 -17 -18 -5 -40 -12 -49 -16 -15 -6 -18
-2 -18 28 0 47 9 67 26 60 8 -3 18 5 24 22 14 36 13 36 -15 69 -18 21 -25 41
-25 70 0 80 -63 140 -146 138 -90 -1 -137 -56 -136 -160 0 -29 -3 -50 -8 -47
-17 10 -21 -15 -9 -55 8 -25 17 -39 25 -36 7 3 15 -6 18 -20 8 -30 24 -31 30
-1 3 12 7 31 9 42 3 11 5 2 6 -20 0 -22 8 -51 17 -64 15 -20 23 -22 78 -19 33
2 69 8 79 12 20 10 22 -2 6 -57 -5 -21 -15 -35 -20 -31 -6 3 -8 12 -5 20 7 19
-8 18 -24 -1 -12 -14 -16 -13 -36 6 -12 11 -27 18 -33 14 -16 -10 -51 4 -51
21 0 8 -5 14 -11 14 -5 0 -7 -6 -3 -12 5 -9 4 -10 -4 -3 -5 6 -12 19 -15 30
-4 15 -5 13 -6 -7 -1 -24 -5 -28 -29 -28 -15 0 -39 11 -55 25 -23 22 -27 34
-27 78 1 29 7 70 15 92 8 22 15 46 15 53 0 7 14 45 31 86 l30 73 62 20 c79 27
89 27 131 4z"/>
<path d="M7393 3455 c-61 -28 -93 -72 -93 -127 0 -20 -5 -38 -12 -40 -17 -6
-13 -76 6 -96 28 -29 66 -92 66 -110 0 -9 -39 -57 -87 -105 l-88 -89 53 4 c28
3 52 4 52 2 0 -2 -22 -15 -50 -29 -27 -14 -50 -29 -50 -33 0 -15 62 -107 113
-167 28 -33 41 -51 28 -40 -30 25 -112 130 -137 173 l-19 34 30 24 c28 22 28
24 8 24 -40 0 -36 22 16 74 28 28 51 55 51 59 0 16 -73 5 -127 -19 -68 -29
-105 -62 -141 -124 l-27 -45 -3 -363 -3 -362 27 -25 c33 -30 82 -33 115 -6
l24 19 5 308 c5 284 6 309 23 312 15 3 17 -8 17 -125 -1 -70 -5 -211 -10 -313
-7 -157 -6 -186 6 -193 12 -7 14 -81 14 -478 0 -418 2 -474 16 -499 34 -56
105 -76 164 -45 60 31 60 29 60 540 0 407 2 465 15 465 13 0 15 -57 15 -455 0
-483 1 -497 48 -538 29 -27 92 -33 130 -13 64 33 62 12 62 538 0 430 2 478 16
486 15 8 15 35 4 310 -6 166 -9 306 -5 312 3 5 13 10 21 10 12 0 14 -46 14
-301 l0 -301 29 -29 c37 -36 79 -38 118 -5 l28 24 0 354 c0 340 -1 355 -22
400 -29 63 -93 123 -159 148 -55 20 -105 26 -118 13 -4 -4 19 -30 50 -59 56
-52 62 -74 21 -74 -21 0 -20 -2 7 -24 l30 -23 -28 -47 c-26 -45 -125 -168
-170 -211 l-20 -20 15 20 c8 11 40 49 71 85 31 36 70 87 87 114 36 57 33 64
-38 101 l-46 24 60 -6 60 -5 -82 84 c-70 70 -83 89 -83 116 0 33 20 73 52 105
10 10 18 32 18 52 0 35 -14 55 -23 33 -3 -7 -6 13 -6 44 -1 67 -30 110 -96
139 -52 24 -60 24 -122 -6z m169 -392 c0 -21 2 -50 3 -65 1 -16 -3 -28 -10
-28 -7 0 -20 -9 -29 -19 -10 -11 -31 -25 -47 -31 -26 -11 -33 -10 -70 15 -52
37 -52 37 -45 99 l7 53 42 -14 c33 -12 50 -12 79 -4 20 7 40 16 43 21 13 21
25 8 27 -27z"/>
<path d="M10070 3410 c-64 -26 -65 -27 -70 -70 -5 -42 -7 -45 -47 -55 -79 -19
-90 -58 -29 -98 27 -18 51 -63 61 -117 17 -95 89 -177 144 -163 37 9 95 47
119 78 11 14 30 55 42 91 17 51 31 71 66 100 24 20 44 43 44 51 0 33 -145 72
-280 74 l-65 1 50 9 c52 8 167 5 185 -6 13 -8 13 16 0 49 -12 32 -46 54 -107
70 -44 11 -53 10 -113 -14z"/>
<path d="M1054 3301 c-39 -24 -79 -103 -77 -154 2 -48 40 -118 73 -134 39 -19
31 -40 -23 -57 -26 -8 -75 -92 -87 -150 -12 -61 0 -143 30 -190 11 -18 22 -59
26 -91 7 -57 6 -60 -57 -182 -84 -162 -125 -213 -260 -320 -62 -48 -131 -105
-153 -126 -50 -46 -121 -97 -135 -97 -48 0 70 -97 192 -158 131 -65 247 -98
390 -113 61 -6 113 -12 114 -13 1 -1 -2 -19 -8 -39 -9 -34 -13 -37 -44 -37
l-35 0 0 -47 c0 -27 -10 -78 -22 -115 -12 -37 -18 -71 -14 -75 4 -4 36 -9 71
-10 38 -1 78 -9 97 -19 27 -14 65 -18 196 -20 89 -2 172 -6 183 -9 20 -7 101
8 152 27 56 21 21 64 -45 54 -76 -10 -123 37 -141 139 -11 64 -12 65 -43 65
-29 0 -32 3 -36 38 -3 20 -5 37 -4 38 1 1 38 -3 84 -8 46 -6 99 -7 119 -3 30
5 34 10 30 28 -13 61 -39 200 -67 357 -17 96 -38 209 -46 250 -7 41 -25 141
-39 221 -32 189 -48 257 -89 377 -51 151 -62 166 -127 176 -20 3 -42 13 -49
21 -22 27 -4 42 58 49 32 4 67 12 76 19 17 12 16 15 -4 49 -18 32 -20 42 -11
75 25 88 0 147 -74 182 -59 28 -157 29 -201 2z m243 -1846 c9 -34 9 -51 2 -56
-7 -4 -6 -17 5 -38 14 -25 15 -46 9 -109 -4 -42 -9 -69 -11 -60 -2 9 -21 22
-44 30 -33 10 -46 23 -70 64 -27 49 -28 53 -14 91 9 24 11 44 5 50 -5 5 2 24
17 46 22 33 30 38 57 35 29 -3 33 -7 44 -53z"/>
<path d="M9981 2919 c-22 -30 -22 -31 -5 -51 18 -19 18 -20 -4 -37 l-23 -17
16 -108 c8 -60 30 -161 47 -225 30 -105 34 -113 39 -81 4 19 7 26 8 15 l2 -20
9 20 c5 14 3 24 -7 32 -15 11 -14 33 3 77 4 10 1 16 -8 16 -12 0 -16 21 -22
92 -3 50 -6 107 -6 125 l0 35 32 -27 c18 -15 42 -31 55 -36 14 -5 23 -17 23
-29 0 -13 4 -18 11 -14 6 3 9 14 6 24 -3 11 5 27 18 40 l22 21 13 -63 c6 -35
14 -76 16 -92 2 -16 9 -33 15 -37 7 -4 12 -27 11 -51 0 -28 2 -36 7 -24 6 17
9 16 25 -9 13 -20 15 -30 7 -35 -8 -4 -9 -14 -2 -31 7 -17 10 -19 10 -6 1 16
21 25 21 9 0 -5 7 -17 15 -28 13 -17 13 -13 0 31 -40 130 -45 163 -45 282 0
123 0 124 -25 133 -28 11 -31 20 -13 38 9 9 8 15 -8 27 -10 8 -21 15 -24 15
-11 0 -33 -66 -31 -91 1 -16 -8 -38 -22 -55 l-24 -27 -7 58 c-5 43 -3 61 6 67
8 5 -1 8 -24 8 -20 0 -38 5 -40 12 -3 7 -12 9 -22 5 -15 -6 -14 -10 13 -33 34
-29 40 -58 14 -69 -21 -7 -67 40 -59 60 2 7 -1 29 -8 49 l-12 36 -23 -31z"/>
<path d="M10271 2889 c-9 -15 -7 -20 9 -29 11 -6 20 -20 20 -31 0 -11 13 -51
28 -87 16 -37 37 -89 47 -116 12 -34 20 -44 26 -35 5 8 9 10 9 6 0 -5 14 -67
30 -139 17 -71 30 -132 30 -134 0 -3 -8 -1 -17 5 -12 6 -21 31 -29 78 l-11 68
-8 -42 c-4 -24 -11 -43 -14 -43 -12 0 -40 92 -50 162 -5 37 -14 75 -20 85 -21
36 -12 -69 14 -162 29 -104 30 -116 10 -109 -11 5 -12 0 -5 -25 10 -36 10 -36
10 -56 0 -8 5 -15 10 -15 6 0 10 9 10 19 0 11 -4 23 -10 26 -12 7 -13 35 -2
35 5 0 15 -15 24 -32 15 -32 15 -33 -21 -61 -20 -16 -49 -35 -64 -43 -30 -16
-224 -54 -232 -46 -3 3 -4 26 -4 51 1 25 3 38 6 29 7 -26 25 -22 21 5 -2 12
-8 21 -14 20 -6 -1 -26 47 -44 108 -19 60 -38 113 -43 116 -6 4 -7 -38 -2
-118 14 -233 8 -259 -57 -255 -24 2 -28 -2 -32 -28 -13 -81 -16 -136 -9 -136
4 -1 18 -9 31 -20 l23 -19 -26 -149 c-27 -161 -31 -223 -15 -252 5 -10 79 -82
165 -159 l155 -142 0 -66 c0 -60 2 -67 31 -94 34 -32 87 -39 134 -17 55 25 55
28 55 523 0 250 3 455 8 455 4 0 16 -7 26 -15 37 -28 95 -15 116 26 6 11 22
80 35 153 l24 133 -30 127 c-16 70 -32 153 -35 184 -9 86 -23 121 -67 169 -49
53 -73 66 -164 91 -68 18 -71 18 -82 1z m-51 -1122 c0 -118 -3 -217 -7 -221
-4 -3 -25 12 -48 34 l-42 41 30 179 c26 157 32 180 49 180 17 0 18 -13 18
-213z"/>
<path d="M9874 2876 c-106 -39 -163 -102 -185 -204 -6 -31 -34 -120 -60 -196
-27 -77 -49 -147 -49 -157 0 -25 97 -298 116 -326 14 -22 13 -26 -5 -50 -28
-35 -14 -52 16 -19 30 33 60 33 75 1 10 -22 7 -29 -26 -65 -31 -35 -36 -47
-36 -89 0 -28 -5 -53 -11 -56 -5 -4 -9 -17 -7 -29 1 -12 -4 -33 -13 -47 -9
-13 -18 -46 -21 -72 -3 -26 -12 -56 -20 -65 -29 -33 -37 -119 -25 -282 3 -41
6 -101 6 -132 1 -43 5 -58 15 -58 10 0 19 28 31 97 10 54 26 124 37 156 14 44
19 86 18 165 0 59 1 128 4 155 3 29 1 47 -6 47 -6 0 -6 6 2 15 7 8 10 25 6 40
-10 39 12 106 46 142 26 27 30 37 26 75 -4 35 0 49 20 72 29 36 27 46 -30 205
l-42 116 50 143 49 143 17 -38 c10 -21 18 -51 19 -68 1 -16 5 -43 9 -60 4 -16
5 20 2 80 -4 89 -1 125 16 190 28 110 35 161 25 178 -7 13 -17 12 -69 -7z"/>
<path d="M10938 2083 c-53 -4 -58 -6 -58 -27 0 -13 8 -34 19 -47 15 -19 28
-23 75 -23 31 0 61 5 67 11 6 6 13 29 16 52 l6 41 -34 -2 c-19 -1 -60 -3 -91
-5z"/>
<path d="M4960 1562 c0 -514 -1 -505 66 -537 66 -31 144 3 164 73 7 20 10 62
8 92 -3 54 -3 55 -36 58 -18 2 -35 9 -38 16 -3 7 4 115 16 240 27 303 29 275
-25 268 -73 -8 -93 18 -130 161 l-24 92 -1 -463z"/>
</g>
</svg>
