<?xml version="1.0" standalone="no"?>
<!DOCTYPE svg PUBLIC "-//W3C//DTD SVG 20010904//EN"
 "http://www.w3.org/TR/2001/REC-SVG-20010904/DTD/svg10.dtd">
<svg version="1.0" xmlns="http://www.w3.org/2000/svg"
 width="211.000000pt" height="300.000000pt" viewBox="0 0 211.000000 300.000000"
 preserveAspectRatio="xMidYMid meet">
<metadata>
Created by potrace 1.16, written by Peter Selinger 2001-2019
</metadata>
<g transform="translate(0.000000,300.000000) scale(0.100000,-0.100000)"
fill="#000000" stroke="none">
<path d="M0 1500 l0 -1500 1055 0 1055 0 0 1500 0 1500 -1055 0 -1055 0 0
-1500z m1086 1435 c10 -8 29 -15 42 -15 13 0 22 -6 22 -15 0 -8 -7 -15 -15
-15 -13 0 -15 -11 -13 -57 l3 -58 235 -32 c129 -17 238 -32 243 -32 4 -1 7
-12 7 -26 0 -21 5 -25 30 -25 27 0 30 -3 30 -30 0 -28 3 -30 35 -30 28 0 35
-4 35 -20 0 -11 7 -20 15 -20 8 0 15 -9 15 -20 0 -11 7 -20 15 -20 12 0 15
-16 15 -80 0 -64 -3 -80 -15 -80 -13 0 -15 -129 -15 -1103 l0 -1104 25 -11
c15 -7 25 -20 25 -32 0 -19 -6 -20 -179 -20 -150 0 -180 -2 -185 -15 -7 -20
-104 -20 -130 0 -29 22 -588 22 -606 0 -24 -29 -135 -29 -127 0 1 6 -55 12
-148 15 -132 4 -150 7 -153 22 -2 11 6 22 22 29 l26 12 0 1102 c0 1094 0 1103
-20 1108 -18 5 -20 14 -20 81 0 69 2 76 20 76 13 0 20 7 20 20 0 11 7 20 15
20 8 0 15 9 15 20 0 16 7 20 35 20 32 0 35 2 35 30 0 27 3 30 30 30 25 0 30 4
30 24 0 30 -9 28 260 61 113 14 211 28 218 30 19 7 16 115 -3 115 -8 0 -15 7
-15 15 0 9 9 15 23 15 12 0 31 7 41 15 11 8 25 15 31 15 6 0 20 -7 31 -15z"/>
<path d="M510 2680 c0 -20 7 -20 545 -20 538 0 545 0 545 20 0 20 -7 20 -545
20 -538 0 -545 0 -545 -20z"/>
<path d="M457 2643 c-4 -3 -7 -15 -7 -25 0 -14 8 -18 35 -18 28 0 35 -4 35
-20 0 -20 7 -20 535 -20 522 0 535 0 535 19 0 15 8 21 33 23 24 2 32 8 32 23
0 20 -8 20 -596 23 -327 1 -599 -1 -602 -5z"/>
<path d="M380 1355 l0 -1195 65 0 65 0 0 1100 0 1100 -35 0 -35 0 0 80 0 80
35 0 c24 0 35 5 35 15 0 12 -14 15 -65 15 l-65 0 0 -1195z"/>
<path d="M550 2535 c0 -13 63 -15 505 -15 442 0 505 2 505 15 0 13 -63 15
-505 15 -442 0 -505 -2 -505 -15z"/>
<path d="M1600 2535 c0 -10 11 -15 35 -15 l35 0 0 -80 0 -80 -35 0 -35 0 0
-1100 0 -1100 65 0 65 0 0 1195 0 1195 -65 0 c-51 0 -65 -3 -65 -15z"/>
<path d="M450 2440 l0 -70 605 0 605 0 0 70 0 70 -605 0 -605 0 0 -70z m1048
3 l-3 -58 -437 -3 -438 -2 0 60 0 60 440 0 441 0 -3 -57z"/>
<path d="M788 2353 l242 -3 1 -23 c1 -12 2 -74 3 -137 1 -111 2 -115 24 -118
22 -3 22 -3 22 132 l0 136 153 1 c83 1 193 4 242 8 51 5 -133 8 -420 7 -280 0
-401 -2 -267 -3z"/>
<path d="M550 1245 l0 -1085 48 0 c48 0 49 1 60 39 18 57 15 71 -12 71 -20 0
-24 6 -30 46 -8 60 -8 210 0 307 l7 77 54 0 54 0 -3 43 -3 42 -50 3 c-27 2
-53 9 -57 15 -4 7 -8 101 -8 210 0 215 -3 203 58 198 20 -2 22 3 22 43 0 45
-10 56 -51 56 -18 0 -19 10 -19 209 l0 208 114 5 c101 4 120 7 172 34 33 16
60 36 62 44 2 13 -22 15 -178 12 l-180 -3 0 211 0 210 175 0 175 0 0 -89 0
-90 30 10 30 11 0 124 0 124 -235 0 -235 0 0 -1085z"/>
<path d="M1090 2207 c0 -103 3 -129 20 -162 24 -48 27 -150 5 -179 -29 -38
-19 -54 58 -93 69 -36 76 -37 195 -41 l122 -4 0 -215 0 -216 -57 5 -58 6 3
-49 4 -49 59 0 59 0 -2 -207 -3 -208 -57 -3 c-62 -3 -63 -5 -52 -61 6 -30 9
-31 55 -31 l49 0 0 -211 c0 -126 -4 -218 -10 -230 -8 -14 -21 -19 -49 -19 -21
0 -40 -2 -42 -5 -3 -2 -3 -20 -1 -40 l4 -35 84 0 84 0 0 1085 0 1085 -235 0
-235 0 0 -123z m410 -177 l0 -210 -175 0 -175 0 0 210 0 210 175 0 175 0 0
-210z"/>
<path d="M1213 2223 l47 -4 0 -90 0 -89 -45 0 c-25 0 -45 -4 -45 -10 0 -5 20
-10 45 -10 l45 0 0 -89 0 -90 -47 -4 c-27 -2 23 -4 110 -5 l157 -2 0 200 0
200 -157 -2 c-87 -1 -137 -3 -110 -5z m157 -93 l0 -90 -45 0 -45 0 0 90 0 90
45 0 45 0 0 -90z m100 0 l0 -90 -45 0 -45 0 0 90 0 90 45 0 45 0 0 -90z m-100
-200 l0 -90 -45 0 -45 0 0 90 0 90 45 0 45 0 0 -90z m100 0 l0 -90 -45 0 -45
0 0 90 0 90 45 0 45 0 0 -90z"/>
<path d="M630 2030 l0 -200 160 0 c146 0 160 2 159 18 0 10 -3 12 -6 5 -3 -8
-23 -13 -49 -13 l-44 0 0 90 0 90 35 0 c19 0 35 5 35 10 0 6 -16 10 -35 10
l-35 0 0 90 0 90 44 0 45 0 4 -52 3 -53 2 58 2 57 -160 0 -160 0 0 -200z m100
100 l0 -90 -45 0 -45 0 0 90 0 90 45 0 45 0 0 -90z m100 0 l0 -90 -45 0 -45 0
0 90 0 90 45 0 45 0 0 -90z m-100 -200 l0 -90 -45 0 -45 0 0 90 0 90 45 0 45
0 0 -90z m100 0 l0 -90 -45 0 -45 0 0 90 0 90 45 0 45 0 0 -90z"/>
<path d="M630 1520 l0 -200 34 0 33 0 12 118 c10 101 29 205 47 265 5 15 -2
17 -60 17 l-66 0 0 -200z"/>
<path d="M1323 1708 c20 -16 39 -152 41 -290 l1 -98 58 0 57 0 0 200 0 200
-87 0 c-72 0 -84 -2 -70 -12z"/>
<path d="M630 1001 l0 -201 50 0 c48 0 50 1 50 28 1 15 5 72 9 127 8 89 7 103
-10 131 -10 17 -22 48 -27 70 -7 35 -11 39 -40 42 l-32 3 0 -200z"/>
<path d="M1365 1173 c-3 -16 -15 -51 -26 -79 l-19 -50 25 -117 c14 -64 25
-119 25 -122 0 -3 25 -5 55 -5 l55 0 0 200 0 200 -55 0 c-52 0 -55 -2 -60 -27z"/>
<path d="M630 480 c0 -188 1 -200 18 -200 15 0 23 16 40 78 11 42 18 91 15
109 -5 28 7 123 24 191 5 21 2 22 -46 22 l-51 0 0 -200z"/>
<path d="M1400 673 c0 -5 18 -91 39 -193 l39 -185 1 193 1 192 -40 0 c-22 0
-40 -3 -40 -7z"/>
<path d="M826 259 c-2 -8 -7 -26 -10 -41 -3 -14 -9 -33 -12 -42 -5 -14 7 -16
105 -16 l111 0 0 30 c0 26 -4 30 -28 30 -15 0 -35 9 -45 20 -11 13 -29 20 -51
20 -19 0 -41 3 -50 6 -9 3 -18 0 -20 -7z"/>
</g>
</svg>
