<?xml version="1.0" standalone="no"?>
<!DOCTYPE svg PUBLIC "-//W3C//DTD SVG 20010904//EN"
 "http://www.w3.org/TR/2001/REC-SVG-20010904/DTD/svg10.dtd">
<svg version="1.0" xmlns="http://www.w3.org/2000/svg"
 width="1841.000000pt" height="508.000000pt" viewBox="0 0 1841.000000 508.000000"
 preserveAspectRatio="xMidYMid meet">
<metadata>
Created by potrace 1.16, written by Peter Selinger 2001-2019
</metadata>
<g transform="translate(0.000000,508.000000) scale(0.100000,-0.100000)"
fill="#000000" stroke="none">
<path d="M12769 4800 c-61 -10 -126 -40 -168 -76 -103 -86 -109 -280 -16 -469
19 -38 37 -84 40 -102 4 -18 33 -65 65 -105 l58 -73 -29 -18 c-19 -12 -29 -27
-29 -43 0 -22 -4 -24 -47 -24 -133 0 -221 -77 -276 -243 -20 -60 -21 -89 -27
-752 -3 -379 -4 -694 -1 -700 3 -5 12 20 21 55 l16 65 13 -40 c15 -45 37 -75
28 -37 -7 30 17 122 34 133 28 17 33 -30 13 -116 -6 -26 25 28 39 69 8 20 13
208 17 541 5 502 5 510 25 510 20 0 20 -8 25 -1251 l5 -1250 25 -37 c26 -37
57 -57 91 -57 34 0 78 29 96 63 17 29 18 88 23 747 l5 715 23 3 22 3 0 -698
c0 -443 4 -711 10 -735 6 -21 26 -50 47 -68 31 -28 42 -31 75 -27 45 6 63 19
86 61 16 28 17 134 22 1281 5 1242 5 1250 25 1250 20 0 20 -8 25 -515 5 -467
7 -519 24 -563 10 -26 20 -47 22 -47 3 0 2 22 -2 50 -7 56 -1 82 19 74 17 -6
36 -63 40 -119 l3 -40 14 47 c8 26 17 45 20 43 4 -3 13 -33 21 -67 l13 -63 6
40 c3 22 2 337 -1 700 -5 563 -8 668 -21 712 -53 174 -145 263 -273 263 -35 0
-43 5 -58 30 -10 16 -27 35 -38 40 -18 10 -16 16 41 85 43 52 63 87 67 112 3
21 21 65 39 98 71 130 90 296 46 387 -57 116 -213 184 -363 158z m-51 -366
c30 -8 28 -38 -3 -58 -25 -17 -25 -17 -8 -47 20 -33 33 -43 77 -53 23 -6 27
-4 23 8 -8 21 3 20 19 -1 13 -17 13 -17 14 0 0 21 30 23 30 1 0 -11 5 -14 18
-9 9 4 24 9 33 12 8 2 24 20 34 40 19 35 19 35 0 49 -10 8 -22 14 -27 14 -4 0
-8 7 -8 15 0 18 31 35 63 35 64 0 61 -79 -6 -132 -59 -48 -96 -61 -153 -53
-60 8 -114 24 -114 34 0 4 -13 14 -29 24 -36 21 -57 76 -41 107 11 20 36 25
78 14z"/>
<path d="M5034 4733 c-20 -21 -30 -23 -122 -23 -70 0 -103 -4 -109 -12 -9 -16
-17 -269 -9 -302 3 -14 15 -28 26 -31 11 -3 23 -18 26 -33 12 -54 15 -60 34
-65 13 -3 20 -14 20 -30 0 -19 14 -34 56 -63 l57 -39 -74 -6 c-41 -4 -121 -22
-179 -41 l-105 -34 0 -58 c0 -44 -4 -61 -17 -69 -9 -6 -20 -9 -23 -6 -3 3 -13
46 -23 95 -16 85 -18 89 -42 86 -27 -2 -80 -53 -80 -77 0 -8 -16 -21 -35 -29
-19 -8 -35 -21 -35 -28 0 -7 -14 -98 -30 -202 -35 -222 -35 -224 -10 -256 26
-33 26 -76 0 -90 -22 -12 -27 -49 -9 -67 7 -7 -4 -107 -40 -346 -58 -380 -60
-422 -30 -461 59 -75 172 -72 223 7 10 14 36 160 71 387 30 200 55 365 55 367
0 2 7 3 15 3 17 0 22 66 5 72 -9 3 3 118 17 158 7 21 21 -15 22 -57 1 -22 7
-33 21 -38 13 -4 20 -15 20 -33 0 -15 3 -44 6 -64 6 -33 11 -38 41 -44 22 -4
32 -11 29 -19 -2 -7 -8 -33 -11 -59 -6 -38 -14 -52 -46 -77 -44 -35 -48 -58
-25 -148 11 -37 12 -61 5 -79 l-10 -25 -37 36 c-37 35 -37 35 -59 17 -25 -20
-32 -85 -10 -93 9 -3 7 -9 -6 -24 -17 -19 -16 -26 13 -161 17 -77 39 -209 49
-291 10 -83 24 -157 30 -164 7 -9 11 -181 13 -549 l3 -535 27 -35 c77 -101
243 -92 305 17 l23 40 0 708 0 707 25 0 25 0 0 -697 c0 -656 2 -700 19 -738
28 -62 104 -115 166 -115 62 0 138 53 166 115 17 37 19 77 19 561 0 299 4 524
9 530 5 5 17 72 26 149 9 77 30 203 47 280 24 110 28 146 20 168 -7 18 -7 39
-1 63 9 32 8 38 -16 62 l-27 27 -35 -40 c-28 -32 -36 -37 -43 -25 -13 21 -13
35 7 119 l17 74 -41 37 c-31 27 -45 49 -52 81 -16 70 -15 76 24 83 l34 7 3 62
c3 53 6 63 26 72 16 7 22 18 22 42 0 36 9 63 20 63 14 0 33 -161 21 -173 -17
-17 -13 -53 7 -68 15 -12 28 -76 71 -369 30 -195 60 -367 67 -382 47 -91 185
-88 234 6 l23 42 -56 370 c-33 222 -52 373 -46 379 14 15 11 65 -5 65 -26 0
-26 52 -1 91 l23 36 -34 219 c-20 125 -40 221 -47 226 -7 4 -19 8 -28 8 -8 0
-23 18 -33 41 -12 27 -29 46 -53 57 -43 20 -46 16 -63 -86 -16 -103 -17 -103
-46 -90 -23 11 -24 16 -22 72 l3 60 -105 34 c-59 19 -138 37 -180 41 l-75 6
57 40 c46 32 57 46 58 68 0 20 5 27 20 27 16 0 20 7 20 31 0 22 9 39 30 57
l30 26 0 144 c0 80 -5 152 -10 163 -9 17 -22 19 -107 19 -86 0 -99 2 -120 22
-34 32 -100 32 -129 1z m-24 -69 c0 -4 -20 -24 -44 -45 -24 -21 -49 -52 -55
-68 -7 -16 -21 -31 -31 -34 -12 -3 -21 -18 -25 -41 -12 -62 -25 -29 -25 62 0
136 -3 132 96 132 46 0 84 -3 84 -6z m348 -106 c2 -70 -1 -108 -8 -108 -5 0
-10 13 -10 29 0 21 -6 32 -19 36 -11 3 -31 26 -46 51 -14 24 -42 55 -60 67
-19 12 -35 26 -35 30 0 4 39 6 88 5 l87 -3 3 -107z m-352 -54 c5 -25 16 -41
38 -55 38 -23 58 -24 102 -3 28 13 35 24 40 55 5 29 11 39 25 39 17 0 19 -8
19 -61 0 -61 0 -61 -26 -55 -45 12 -74 -35 -39 -64 22 -18 55 -3 55 26 0 13 5
24 10 24 21 0 10 -64 -14 -90 -14 -14 -41 -42 -61 -62 -20 -21 -46 -38 -57
-38 -23 0 -148 122 -148 145 0 19 11 45 19 45 4 0 7 -10 8 -21 2 -27 2 -27 37
-31 18 -2 32 3 39 14 17 26 -25 59 -64 51 l-29 -5 0 61 c0 54 2 61 20 61 14 0
21 -9 26 -36z"/>
<path d="M6131 4558 c-54 -26 -97 -90 -106 -157 l-6 -48 -67 -7 c-37 -3 -84
-6 -105 -6 -21 0 -36 -4 -33 -9 3 -4 54 -12 113 -16 l108 -7 22 -33 21 -34
-32 -43 c-17 -24 -49 -68 -71 -98 l-38 -55 59 55 c32 31 73 68 90 83 l31 28
45 -20 46 -19 8 -114 c6 -95 9 -107 16 -73 4 22 10 74 13 116 l7 77 45 17 45
17 84 -83 c46 -46 84 -80 84 -76 0 4 -30 48 -66 98 l-67 91 20 34 19 35 105 5
c57 3 108 9 112 13 5 5 -39 12 -96 16 l-104 7 -7 51 c-16 141 -166 219 -295
155z m109 -147 l0 -124 83 6 c73 6 80 5 63 -8 -37 -28 -326 -23 -326 4 0 5 33
8 73 7 l72 -1 6 120 c8 162 7 153 19 135 5 -8 10 -71 10 -139z"/>
<path d="M7554 4411 c-68 -31 -124 -117 -124 -192 0 -44 21 -99 50 -133 24
-27 27 -35 16 -47 -8 -8 -16 -25 -19 -39 -5 -20 1 -30 30 -53 44 -33 53 -29
23 13 -15 21 -20 39 -16 56 6 23 8 24 35 9 49 -25 104 -29 165 -11 31 9 61 14
66 11 14 -9 12 -31 -4 -47 -21 -21 -30 -58 -14 -58 37 1 57 13 60 39 5 34 -18
81 -39 81 -11 0 -9 6 10 20 85 67 89 222 7 307 -57 62 -165 81 -246 44z m104
-171 l-3 -122 83 4 c52 2 81 -1 79 -7 -5 -13 -49 -22 -114 -24 -35 -1 -53 -5
-54 -13 0 -10 -2 -10 -6 0 -3 7 -24 12 -51 13 -61 2 -104 11 -109 24 -2 6 27
9 78 6 l82 -3 -7 47 c-10 61 3 220 16 207 6 -6 8 -62 6 -132z"/>
<path d="M14429 4323 c-49 -41 -148 -170 -155 -201 -3 -15 -16 -58 -30 -95
-29 -82 -30 -107 -6 -107 10 0 23 5 29 11 7 7 21 6 47 -5 28 -12 36 -21 36
-40 0 -33 -11 -33 -47 2 -34 31 -108 40 -99 12 16 -52 31 -90 49 -125 11 -22
26 -69 33 -105 23 -119 54 -181 54 -107 0 21 13 50 40 87 22 30 49 72 60 93
15 27 27 37 44 37 35 0 56 -10 56 -27 0 -8 23 -53 50 -100 55 -94 59 -105 30
-78 -11 10 -20 24 -20 31 0 35 -20 18 -35 -29 l-17 -53 33 -70 c26 -54 33 -82
34 -130 0 -56 -3 -65 -43 -117 -43 -58 -43 -80 0 -29 13 15 35 33 48 41 l24
14 -17 -27 c-10 -14 -15 -26 -11 -26 4 0 1 -7 -6 -15 -20 -24 -6 -28 15 -5 11
13 14 20 6 20 -8 0 -4 10 8 26 21 27 28 50 12 40 -5 -3 -3 11 5 32 7 20 13 47
14 59 0 24 -20 74 -33 84 -8 6 -5 47 6 119 7 40 18 60 30 53 5 -3 7 -2 4 4
-10 16 18 117 46 168 15 26 27 54 27 61 0 7 8 29 17 49 15 31 15 37 3 45 -19
12 -60 13 -60 1 0 -8 -74 -61 -85 -61 -11 0 -3 26 16 49 14 18 33 25 69 29 28
2 50 8 50 13 0 5 -11 38 -25 75 -14 36 -25 74 -25 84 0 25 -108 169 -156 208
-48 39 -82 41 -125 5z"/>
<path d="M6849 4093 c-95 -49 -147 -144 -136 -249 6 -63 28 -107 75 -156 28
-30 33 -41 24 -50 -7 -7 -12 -26 -12 -44 l0 -32 -97 -4 c-153 -7 -242 -60
-306 -182 l-32 -61 -3 -447 c-3 -502 -4 -501 65 -533 29 -14 43 -15 73 -6 77
23 74 6 80 440 l5 386 28 3 27 3 0 -1006 c0 -1091 -2 -1048 55 -1093 80 -63
200 -23 234 77 8 24 11 207 11 612 l0 579 25 0 25 0 0 -593 c0 -673 -4 -641
80 -684 53 -28 82 -28 136 -4 31 14 47 30 63 63 l21 44 0 1002 0 1002 25 0 25
0 0 -376 c0 -330 2 -379 16 -404 19 -31 63 -60 91 -60 13 0 29 -22 57 -80 32
-64 43 -79 60 -77 16 1 20 -3 18 -17 -5 -26 44 -75 69 -69 14 4 18 11 14 22
-4 9 -11 28 -17 42 -5 15 -18 29 -29 32 -12 3 -17 11 -13 20 3 8 -15 44 -41
82 -39 58 -44 70 -33 84 38 47 38 53 38 472 0 385 -1 416 -20 480 -34 113
-120 203 -222 234 -29 8 -85 15 -125 15 l-73 0 0 39 c0 22 -5 43 -10 46 -6 3
5 21 25 39 67 64 93 170 63 268 -15 51 -77 121 -131 147 -65 32 -158 29 -228
-6z m36 -468 c51 -18 119 -19 170 -1 22 8 43 12 47 9 10 -6 10 -183 1 -183 -5
0 -19 16 -33 36 -53 79 -131 83 -198 10 l-40 -43 -6 30 c-8 40 -8 142 1 150 9
9 12 9 58 -8z m181 -199 c-3 -17 -9 -50 -12 -73 l-7 -43 -76 0 -76 0 -11 43
c-17 68 -19 72 -29 79 -9 7 41 68 56 68 3 0 12 -13 19 -30 10 -24 9 -38 -4
-76 -24 -72 -23 -74 39 -74 63 0 65 4 38 81 -16 45 -16 49 0 67 9 10 17 25 17
33 1 8 11 2 26 -15 20 -23 25 -36 20 -60z"/>
<path d="M3164 4067 c-16 -14 -29 -38 -33 -61 -6 -37 -9 -39 -90 -72 -46 -18
-99 -46 -119 -60 -34 -26 -35 -27 -30 -6 4 12 2 22 -3 22 -6 0 -35 19 -66 41
l-55 41 -26 -26 -26 -26 30 -32 c16 -18 36 -46 44 -61 8 -15 19 -26 27 -23 24
10 22 -10 -8 -69 -16 -32 -29 -64 -29 -71 0 -7 -8 -18 -17 -24 -16 -9 -15 -10
5 -5 20 6 22 3 22 -29 0 -29 -5 -38 -30 -51 -37 -19 -38 -24 -5 -17 24 4 25 2
25 -47 0 -50 -2 -53 -34 -66 -48 -20 -54 -35 -11 -25 l35 8 0 -38 c0 -73 -9
-96 -45 -109 -18 -6 -38 -17 -44 -25 -6 -7 -21 -103 -34 -214 l-23 -202 23 0
c13 0 23 -4 23 -10 0 -5 -11 -10 -24 -10 -27 0 -33 -10 -42 -80 -6 -47 -5 -50
16 -50 22 0 22 -3 16 -56 -5 -45 -12 -60 -36 -80 -37 -32 -48 -80 -26 -123 9
-17 21 -31 26 -31 6 0 10 -22 10 -49 0 -40 -5 -53 -23 -68 -53 -42 -62 -104
-21 -152 22 -27 25 -36 18 -78 -4 -33 -15 -57 -34 -76 -15 -15 -30 -39 -33
-53 -6 -35 10 -91 30 -102 12 -7 15 -21 11 -65 -4 -44 -11 -63 -36 -92 -39
-43 -43 -98 -12 -138 17 -22 20 -38 18 -89 l-3 -63 -57 -3 c-52 -3 -60 -6 -92
-43 -36 -39 -36 -40 -36 -127 0 -77 3 -92 25 -125 l26 -37 834 0 834 0 26 43
c21 37 25 56 25 121 0 74 -2 79 -36 122 -35 42 -39 44 -89 44 -61 0 -65 6 -65
80 0 32 7 61 21 85 15 26 20 44 15 67 -7 37 -32 78 -47 78 -6 0 -1 -12 10 -26
38 -48 19 -144 -29 -144 -21 0 -32 37 -34 112 l-1 40 -40 -8 c-22 -4 -56 -7
-75 -7 -23 1 -29 -1 -17 -6 10 -4 18 -9 17 -11 -1 -3 3 -18 9 -33 16 -40 14
-89 -5 -115 -19 -28 -64 -29 -88 -3 -22 25 -32 92 -17 119 10 19 9 21 -6 15
-16 -6 -16 -5 -4 11 13 16 12 17 -10 12 -87 -19 -134 -26 -165 -26 l-35 0 16
-30 c44 -85 -25 -183 -105 -150 -54 23 -79 109 -44 158 l15 22 -75 0 -76 0 16
-34 c49 -101 -72 -204 -142 -122 -28 32 -33 99 -9 133 15 21 14 22 -42 28 -32
3 -91 13 -132 21 -41 8 -76 12 -78 10 -2 -2 7 -6 19 -9 25 -7 32 -30 30 -95
-2 -72 -65 -109 -106 -63 -25 28 -23 96 4 133 29 39 17 51 -60 58 l-60 6 0
-47 c0 -105 -23 -141 -63 -100 -33 33 -29 93 8 131 l30 29 95 -9 c52 -6 118
-17 145 -24 87 -25 204 -34 445 -35 172 0 256 4 313 15 43 9 85 13 93 10 9 -3
12 -1 9 4 -4 6 18 10 57 11 35 0 88 8 118 18 l55 18 -3 56 c-3 46 0 62 17 83
27 35 28 93 0 128 -11 14 -27 26 -35 26 -10 0 -6 -8 11 -22 36 -32 43 -85 15
-121 -41 -52 -63 -26 -64 79 l-1 51 -39 -13 c-21 -8 -51 -14 -67 -14 l-29 0
20 -32 c28 -47 26 -103 -5 -133 -32 -33 -48 -31 -79 6 -32 38 -35 95 -6 131
l20 26 -33 6 c-17 4 -84 9 -147 12 -107 5 -113 4 -83 -10 39 -18 53 -43 53
-96 0 -84 -82 -119 -141 -61 -36 37 -40 94 -8 135 l20 26 -91 0 -92 0 26 -31
c30 -35 33 -67 11 -109 -28 -55 -85 -66 -132 -26 -23 20 -28 32 -28 69 0 30 6
52 19 66 l19 21 -120 0 -120 0 20 -41 c19 -38 19 -45 6 -83 -8 -24 -25 -46
-41 -55 -25 -15 -29 -14 -52 8 -36 34 -37 107 -1 149 l25 29 -53 7 c-28 4 -62
10 -74 13 -22 5 -23 2 -23 -57 0 -60 -12 -100 -30 -100 -5 0 -18 10 -30 22
-37 40 -20 117 30 138 22 9 50 8 131 -6 95 -16 133 -16 439 -5 249 8 358 8
425 0 114 -14 199 -9 250 16 39 19 40 21 40 71 0 38 5 58 20 74 27 30 27 100
1 129 -28 30 -41 26 -17 -5 26 -33 27 -84 3 -115 -31 -37 -49 -19 -57 55 l-7
66 -59 0 c-33 0 -59 -4 -59 -8 0 -5 7 -24 16 -41 20 -40 13 -96 -15 -124 -40
-41 -101 9 -101 83 0 46 29 90 60 92 42 2 -110 15 -195 16 -59 1 -75 -1 -62
-9 9 -5 24 -24 33 -41 27 -52 5 -112 -49 -131 -24 -9 -83 16 -96 41 -16 30
-13 79 5 107 l16 25 -82 0 -81 0 20 -26 c29 -37 27 -77 -7 -116 -22 -23 -37
-31 -62 -31 -65 0 -103 85 -63 142 l16 24 -39 -7 c-21 -3 -67 -9 -102 -13 -53
-5 -62 -8 -55 -22 16 -35 8 -99 -16 -125 -30 -32 -54 -33 -81 -4 -22 24 -27
86 -9 120 14 27 4 34 -58 42 l-53 7 0 -48 c0 -94 -20 -116 -59 -67 -28 36 -26
68 7 104 27 31 28 31 77 20 73 -17 232 -22 290 -10 95 20 518 32 676 19 81 -6
163 -9 183 -5 l36 7 0 58 c0 45 4 62 20 76 35 32 18 145 -21 145 -6 0 -1 -12
10 -26 29 -37 27 -79 -5 -111 -24 -24 -27 -25 -36 -8 -11 19 -16 120 -8 145 6
18 -51 25 -120 15 -35 -5 -41 -9 -27 -16 67 -38 52 -179 -19 -179 -60 0 -88
117 -39 165 l24 25 -115 0 -115 0 20 -26 c31 -39 28 -97 -5 -123 -37 -29 -70
-26 -105 8 -36 36 -39 84 -7 118 l21 23 -35 0 c-19 0 -56 -3 -81 -6 -45 -7
-46 -7 -30 -30 33 -51 -13 -134 -74 -134 -31 0 -83 51 -83 82 0 13 7 33 15 44
8 10 15 22 15 27 0 4 -43 7 -95 7 l-96 0 16 -30 c46 -88 -31 -194 -95 -130
-24 24 -27 97 -5 126 8 10 15 22 15 27 0 9 -41 9 -92 1 l-38 -7 0 -56 c0 -32
-6 -65 -13 -75 -12 -16 -14 -16 -35 4 -33 31 -28 95 10 123 30 22 122 26 981
39 l228 3 -7 53 c-6 48 -5 52 15 52 25 0 24 0 10 73 -10 50 -15 57 -35 57 -13
0 -24 5 -24 10 0 6 9 10 20 10 25 0 25 -1 -1 218 -22 188 -31 213 -84 226 -23
6 -35 43 -35 110 0 26 3 28 30 24 40 -6 38 5 -5 25 -33 16 -35 19 -35 68 0 51
0 51 27 44 31 -7 26 2 -9 19 -29 15 -39 76 -12 76 12 0 14 3 6 13 -6 6 -18 32
-28 57 -9 25 -26 57 -36 73 -19 27 -16 32 18 28 7 -1 19 16 27 36 8 21 27 49
41 62 27 26 24 41 -16 62 -15 8 -28 2 -66 -31 -27 -22 -54 -40 -61 -40 -8 0
-11 -6 -7 -16 3 -9 3 -14 -1 -12 -5 1 -42 19 -83 39 -41 21 -92 44 -112 53
-26 12 -38 23 -38 37 0 28 -27 77 -49 89 -33 17 -78 11 -107 -13z m137 -225
c-6 -11 -31 -25 -57 -32 -43 -12 -48 -12 -61 6 -8 10 -19 18 -24 16 -6 -1 -8
2 -5 7 3 5 0 14 -7 19 -8 7 -11 25 -9 46 l4 36 25 -20 c40 -31 102 -22 128 19
14 22 20 -72 6 -97z m-346 -718 c44 -21 68 -59 69 -110 1 -53 -26 -92 -81
-118 -23 -11 -44 -28 -47 -39 -6 -24 -31 -17 -31 9 0 11 -13 26 -29 35 -35 18
-66 72 -66 112 0 63 62 127 123 127 16 0 44 -7 62 -16z m750 -81 c5 -13 13
-23 17 -23 5 0 8 -5 8 -11 0 -5 -4 -8 -9 -4 -5 3 -12 1 -16 -5 -3 -5 -1 -10 4
-10 18 0 12 -47 -10 -84 -20 -34 -59 -50 -59 -25 0 5 -5 7 -10 4 -6 -3 -20 -3
-31 0 -15 5 -19 13 -16 27 5 16 2 19 -13 15 -17 -4 -17 -2 -3 42 9 25 17 52
19 59 2 7 12 15 21 18 10 3 25 9 33 14 24 15 54 7 65 -17z"/>
<path d="M2843 3111 c-36 -22 -63 -67 -63 -104 0 -37 41 -91 81 -104 47 -15
84 -6 118 28 34 34 43 72 28 118 -23 67 -105 99 -164 62z"/>
<path d="M11243 3979 c-116 -87 -135 -138 -132 -351 l2 -157 -32 -30 c-26 -25
-31 -34 -25 -58 9 -37 36 -90 94 -188 26 -44 60 -115 75 -157 15 -43 32 -78
36 -78 5 0 7 10 5 23 -3 12 -8 40 -11 61 -4 22 -18 67 -32 102 -14 34 -23 70
-19 79 10 26 49 14 65 -20 18 -37 27 -170 13 -187 -6 -7 -8 -25 -5 -40 5 -24
10 -27 64 -33 32 -4 86 -4 118 0 l60 7 -5 106 c-5 91 -3 112 13 142 11 22 25
35 38 35 30 0 30 -37 0 -113 -29 -73 -44 -162 -27 -162 6 0 22 35 36 78 15 43
46 110 70 149 54 86 91 159 100 196 6 24 1 33 -25 58 l-33 30 3 157 c3 214
-16 265 -134 352 l-54 40 -103 -1 -103 0 -52 -40z m26 -289 c91 -17 253 -10
332 15 17 6 19 1 19 -40 0 -26 -7 -61 -15 -78 -8 -18 -21 -52 -28 -76 -7 -24
-22 -50 -34 -58 -22 -15 -22 -14 -13 18 14 46 13 51 -7 47 -13 -2 -18 -13 -18
-38 0 -40 -29 -60 -85 -59 -58 2 -84 13 -90 39 -3 14 -14 26 -23 28 -20 4 -23
-18 -5 -36 21 -21 0 -25 -34 -5 -23 13 -36 31 -44 59 -6 22 -19 55 -28 72 -9
17 -16 54 -16 82 0 44 2 51 18 46 9 -3 41 -10 71 -16z"/>
<path d="M11443 3658 c-4 -7 -12 -26 -18 -43 -13 -39 -45 -40 -63 -3 -17 35
-51 44 -91 24 -35 -19 -40 -48 -15 -84 19 -28 23 -27 67 2 28 19 38 22 46 12
6 -7 8 -16 5 -19 -4 -3 -3 -18 0 -32 5 -21 12 -26 34 -23 26 3 27 5 25 51 -3
46 -2 48 20 41 12 -5 38 -8 57 -9 31 0 35 3 38 27 5 46 -14 68 -58 68 -21 0
-42 -6 -47 -12z"/>
<path d="M8381 3759 c-151 -46 -250 -233 -330 -624 -18 -91 -21 -160 -31 -770
-12 -776 -9 -825 55 -841 60 -15 105 54 105 161 0 64 1 65 33 78 59 25 60 32
53 192 l-8 144 32 45 c25 34 33 57 37 107 6 56 10 66 45 99 36 35 38 41 38 95
0 53 3 63 31 92 27 27 33 42 38 95 4 41 10 63 19 62 6 -1 35 -2 63 -2 l51 -2
-5 -212 c-4 -186 -10 -247 -46 -478 -83 -534 -139 -819 -176 -892 -8 -17 -12
-34 -9 -37 3 -3 63 -5 133 -3 124 2 128 2 151 -23 46 -49 142 -42 193 15 37
41 71 39 114 -5 54 -55 133 -59 194 -8 29 25 33 26 127 20 53 -4 114 -4 134
-1 35 6 36 7 22 29 -30 46 -70 221 -129 575 -73 435 -115 757 -115 878 l0 117
28 12 c15 6 57 13 93 16 l67 5 4 -64 c3 -55 8 -68 35 -96 26 -28 31 -42 35
-97 4 -59 8 -67 40 -95 31 -28 36 -38 42 -96 5 -50 13 -75 37 -108 l31 -43 -7
-145 c-8 -159 -6 -166 53 -191 31 -13 32 -14 32 -78 0 -75 17 -125 51 -149 31
-21 55 -20 79 4 21 21 21 28 18 793 l-3 772 -43 158 c-51 192 -81 271 -138
358 -75 118 -178 167 -286 135 -69 -20 -81 -41 -103 -181 -19 -114 -32 -151
-69 -184 -14 -14 -26 -33 -26 -43 0 -10 29 -69 65 -130 75 -129 82 -167 40
-216 -32 -38 -72 -48 -118 -28 -30 12 -48 37 -124 165 -86 148 -100 165 -125
156 -7 -3 -53 -72 -101 -154 -72 -123 -94 -152 -123 -166 -44 -21 -83 -13
-119 25 -48 50 -40 87 49 234 42 70 76 132 76 138 0 5 -11 19 -24 29 -30 23
-40 54 -61 179 -19 111 -37 153 -70 168 -37 17 -116 22 -154 11z"/>
<path d="M8800 3743 c-78 -41 -113 -95 -118 -181 -4 -66 15 -142 35 -142 4 0
20 20 35 45 33 55 88 76 135 53 25 -12 33 -12 63 0 50 20 105 2 132 -44 11
-19 23 -34 28 -34 14 0 31 93 24 134 -26 161 -189 243 -334 169z"/>
<path d="M14451 3734 c-9 -21 -9 -31 2 -48 20 -32 28 -56 17 -56 -6 0 -10 6
-10 13 0 6 -8 22 -18 35 l-18 23 -27 -49 c-15 -27 -27 -57 -27 -66 0 -9 -4
-16 -9 -16 -19 0 -19 -65 -1 -102 28 -55 34 -125 16 -175 -18 -51 -15 -54 12
-10 26 42 34 118 16 153 -19 35 -18 98 1 114 12 10 15 10 15 -2 0 -8 18 -50
41 -94 32 -62 39 -87 36 -115 -3 -20 -1 -42 3 -48 4 -7 10 15 13 49 5 46 3 69
-8 89 -18 33 -36 101 -29 113 3 4 0 8 -5 8 -6 0 -11 5 -11 10 0 23 19 7 49
-41 17 -28 34 -50 36 -47 3 2 -2 36 -10 74 -17 80 -19 141 -5 146 6 2 6 15 2
33 -7 24 -15 31 -38 33 -25 2 -33 -2 -43 -24z"/>
<path d="M16146 3734 c-9 -8 -16 -11 -16 -5 0 17 -27 13 -34 -4 -3 -8 -12 -15
-20 -15 -8 0 -17 -9 -21 -19 -3 -11 -16 -21 -28 -23 -14 -2 -29 -17 -40 -40
-10 -21 -24 -38 -31 -38 -7 0 -19 -19 -27 -42 -7 -24 -22 -50 -32 -58 -10 -8
-21 -34 -24 -58 -3 -25 -11 -42 -19 -42 -8 0 -15 -18 -19 -47 -4 -27 -14 -53
-22 -60 -8 -6 -15 -29 -16 -50 0 -21 -5 -44 -10 -50 -5 -7 -9 -35 -9 -62 0
-48 -1 -49 -44 -67 -30 -12 -44 -24 -44 -37 0 -10 -8 -21 -18 -23 -18 -5 -42
-47 -42 -75 0 -10 -4 -21 -10 -24 -5 -3 -10 -16 -10 -29 0 -12 -6 -28 -12 -35
-10 -11 -10 -14 0 -18 15 -6 16 -39 1 -49 -8 -4 -7 -9 2 -14 10 -7 10 -12 -2
-26 -11 -13 -11 -18 -1 -21 15 -6 16 -39 1 -49 -8 -4 -7 -9 2 -14 10 -7 10
-12 -2 -26 -11 -13 -11 -18 -1 -21 15 -6 16 -39 1 -49 -8 -4 -7 -9 2 -14 10
-7 10 -12 -2 -26 -11 -13 -11 -18 -1 -21 15 -6 16 -39 1 -49 -8 -4 -7 -9 2
-14 10 -7 10 -12 -1 -25 -12 -14 -12 -18 1 -25 12 -8 12 -13 1 -31 -11 -18
-11 -23 -1 -30 10 -6 10 -11 -2 -25 -11 -13 -11 -18 -1 -21 15 -6 16 -39 1
-49 -8 -4 -7 -9 2 -14 10 -7 10 -12 -1 -25 -10 -13 -11 -18 -2 -24 8 -5 11
-27 9 -59 -2 -36 1 -52 10 -52 6 0 19 -10 28 -22 13 -19 25 -23 68 -23 46 0
56 4 85 34 l32 34 0 348 0 349 25 0 25 0 1 -557 c0 -307 0 -726 0 -930 1 -220
4 -373 10 -373 5 0 9 -6 9 -12 0 -7 21 -28 48 -45 51 -35 118 -45 144 -21 8 7
22 18 33 24 10 6 23 19 29 30 6 10 14 21 18 25 4 3 9 250 10 550 l3 544 23 3
22 3 0 -539 c0 -459 2 -545 15 -576 8 -20 19 -36 24 -36 5 0 17 -8 27 -17 28
-28 132 -25 162 5 12 12 29 22 37 22 8 0 15 6 15 14 0 7 7 19 15 26 11 9 13
16 5 24 -13 13 -13 46 0 46 6 0 10 18 10 40 0 22 -4 40 -10 40 -5 0 -10 7 -10
15 0 8 5 15 10 15 6 0 10 18 10 40 0 22 -4 40 -10 40 -5 0 -10 7 -10 15 0 8 5
15 10 15 6 0 10 18 10 40 0 22 -4 40 -10 40 -5 0 -10 7 -10 15 0 8 5 15 10 15
6 0 10 18 10 40 0 22 -4 40 -10 40 -5 0 -10 7 -10 15 0 8 5 15 10 15 6 0 10
18 10 40 0 22 -4 40 -10 40 -5 0 -10 7 -10 15 0 8 5 15 10 15 6 0 10 18 10 40
0 22 -4 40 -10 40 -5 0 -10 7 -10 15 0 8 5 15 10 15 6 0 10 18 10 40 0 22 -4
40 -10 40 -5 0 -10 9 -10 20 0 11 5 20 10 20 6 0 10 16 10 35 0 19 -4 35 -10
35 -5 0 -10 9 -10 20 0 11 5 20 10 20 6 0 10 16 10 35 0 19 -4 35 -10 35 -5 0
-10 9 -10 20 0 11 5 20 10 20 6 0 10 16 10 35 0 19 -4 35 -10 35 -5 0 -10 9
-10 20 0 11 5 20 10 20 6 0 10 16 10 35 0 19 -4 35 -10 35 -5 0 -10 9 -10 20
0 11 5 20 10 20 6 0 10 16 10 35 0 19 -4 35 -10 35 -5 0 -10 9 -10 20 0 11 5
20 10 20 6 0 10 16 10 35 0 19 -4 35 -10 35 -5 0 -10 9 -10 20 0 11 5 20 10
20 6 0 10 16 10 35 0 19 -4 35 -10 35 -5 0 -10 9 -10 20 0 11 5 20 10 20 6 0
10 16 10 35 0 19 -4 35 -10 35 -5 0 -10 9 -10 20 0 11 5 20 10 20 6 0 10 13
10 29 0 17 -4 33 -10 36 -5 3 -10 20 -10 36 0 28 2 30 33 27 l32 -3 5 -358 5
-359 29 -25 c40 -34 106 -29 137 11 11 14 26 26 34 26 12 0 27 65 17 75 -3 3
-5 176 -6 384 -1 340 -3 382 -17 393 -9 7 -20 30 -23 51 -5 28 -14 40 -32 47
-13 5 -24 16 -24 24 0 16 -42 46 -65 46 -19 0 -33 32 -17 38 17 5 15 41 -3 58
-8 9 -15 33 -15 53 0 24 -8 49 -21 66 -18 22 -20 29 -8 37 11 7 11 11 2 15 -7
2 -13 13 -13 23 0 9 -7 23 -15 30 -8 7 -15 25 -15 40 0 17 -10 37 -25 51 -13
13 -25 34 -25 47 0 12 -4 22 -10 22 -5 0 -10 7 -10 15 0 9 -11 21 -25 27 -14
6 -25 19 -25 28 0 16 -29 50 -43 50 -3 0 -17 10 -31 23 -51 46 -59 52 -64 39
-3 -9 -9 -8 -25 3 -28 20 -91 19 -111 -1z m202 -391 l3 -62 -29 10 c-16 5 -44
23 -63 38 l-34 29 -40 -20 c-22 -11 -50 -29 -62 -40 -31 -29 -43 -15 -43 53
l0 60 133 -3 132 -3 3 -62z m-110 -327 c3 -21 -1 -26 -19 -26 l-22 0 21 -23
c25 -26 28 -64 9 -92 -12 -15 -11 -21 5 -37 25 -25 24 -68 -3 -75 -20 -6 -20
-6 2 -29 18 -19 21 -31 17 -69 -3 -25 -8 -48 -11 -51 -11 -11 -75 28 -81 49
-10 38 -7 47 19 57 l26 10 -21 22 c-27 29 -25 66 5 98 l25 26 -25 14 c-23 12
-36 50 -17 50 4 0 13 4 21 9 11 7 9 14 -14 33 -21 18 -26 30 -21 45 13 42 79
34 84 -11z m-26 -413 c-10 -4 -7 -9 10 -17 31 -16 37 -62 8 -71 l-21 -7 21
-32 c26 -42 25 -80 0 -117 l-21 -28 21 -21 c26 -26 23 -51 -9 -66 l-23 -12 21
-21 c27 -27 27 -53 0 -77 l-20 -18 20 -8 c15 -5 21 -16 21 -38 0 -25 -4 -30
-23 -30 -13 0 -32 9 -43 21 -17 19 -18 22 -2 49 14 25 14 31 2 41 -20 16 -17
34 7 50 l21 14 -21 27 c-28 34 -26 56 4 88 l25 26 -25 14 c-20 11 -25 21 -25
51 0 31 5 41 25 52 l26 13 -31 27 c-16 15 -30 32 -30 38 0 15 47 59 62 58 10
0 10 -2 0 -6z"/>
<path d="M14074 3566 c-73 -27 -106 -50 -163 -111 -69 -75 -86 -125 -120 -358
-17 -114 -31 -234 -31 -267 0 -55 3 -64 34 -98 31 -33 40 -37 83 -37 86 0 87
2 209 260 l33 70 1 -93 c0 -50 -9 -197 -20 -325 -12 -127 -22 -245 -23 -262
-2 -24 2 -31 21 -33 l22 -3 0 -677 c0 -427 4 -690 10 -714 13 -46 77 -105 124
-114 76 -14 153 22 187 86 18 33 19 71 19 692 l0 658 25 0 25 0 0 -658 c0
-621 1 -659 19 -692 34 -64 111 -100 187 -86 47 9 111 68 124 114 6 24 10 287
10 714 l0 677 23 3 c27 4 27 -19 -2 308 -14 160 -21 307 -19 395 l3 140 25 0
25 0 5 -425 c5 -389 7 -427 23 -452 19 -27 72 -58 101 -58 35 0 86 30 106 62
20 32 20 45 18 523 l-3 490 -27 58 c-69 146 -208 237 -364 237 -65 0 -73 -2
-88 -24 -9 -14 -13 -32 -10 -41 4 -8 1 -29 -6 -45 -10 -24 -9 -38 4 -78 22
-66 8 -198 -26 -249 -25 -36 -32 -39 -52 -20 -12 10 -12 15 2 32 12 13 7 11
-14 -5 -17 -14 -28 -27 -25 -30 4 -3 12 -25 19 -50 7 -25 15 -53 19 -62 8 -26
-19 -22 -51 7 -15 14 -38 28 -52 31 -24 6 -54 38 -54 58 0 6 7 1 15 -11 8 -11
23 -23 34 -26 20 -5 20 -4 -1 23 -11 16 -18 35 -15 43 3 8 0 20 -6 26 -9 9 -8
11 4 6 11 -4 25 5 43 27 14 18 31 39 37 46 9 10 8 20 -2 39 l-14 26 -9 -33
c-6 -21 -23 -40 -48 -56 -23 -15 -38 -32 -38 -44 0 -11 -4 -20 -9 -20 -5 0
-24 -24 -42 -52 -55 -85 -88 -118 -118 -118 -36 0 -51 19 -85 108 -33 87 -77
138 -127 147 -48 9 -103 -15 -128 -55 -23 -38 -31 -29 -27 32 7 98 84 164 182
156 94 -8 154 -72 154 -165 0 -30 -5 -63 -11 -75 -14 -26 -4 -80 20 -110 l19
-23 22 20 c13 11 45 53 72 93 36 53 44 72 32 72 -9 0 -18 -9 -21 -20 -3 -11
-9 -20 -13 -20 -13 0 -21 48 -12 67 32 64 53 171 31 157 -8 -4 -9 4 -4 27 5
27 4 31 -5 19 -10 -12 -11 -11 -7 8 3 12 1 22 -4 22 -5 0 -9 7 -9 15 0 9 -6
18 -14 21 -8 3 -14 18 -14 33 1 15 -4 37 -11 49 -11 20 -19 22 -89 21 -54 0
-95 -7 -138 -23z"/>
<path d="M8798 3499 c-9 -5 -69 -97 -132 -204 -129 -215 -137 -242 -90 -289
32 -31 91 -36 122 -8 31 26 242 392 242 419 0 29 -17 63 -39 80 -19 15 -79 16
-103 2z"/>
<path d="M8941 3496 c-8 -10 -9 -16 -1 -21 13 -8 13 -78 -1 -108 -10 -22 0
-43 90 -196 56 -94 110 -175 121 -181 10 -5 34 -10 53 -10 42 0 87 46 87 89 0
30 -208 394 -242 424 -24 21 -91 23 -107 3z"/>
<path d="M10983 3350 c-55 -25 -123 -93 -154 -155 l-24 -50 0 -473 0 -474 28
-24 c21 -18 40 -24 74 -24 38 0 50 5 79 34 l34 34 0 380 c0 345 2 380 17 386
9 4 20 3 25 -2 4 -4 7 -308 6 -675 l-3 -668 -155 131 c-165 139 -215 169 -326
195 -38 10 -83 23 -101 31 -17 8 -34 14 -38 14 -5 0 -30 20 -56 45 -80 75
-189 110 -321 104 -57 -3 -82 -9 -97 -23 -12 -11 -21 -23 -21 -28 0 -5 17 -27
38 -51 43 -47 44 -72 4 -82 -34 -8 -62 -33 -62 -54 0 -25 255 -333 293 -354
41 -22 140 -20 144 3 2 8 -28 49 -65 91 -161 184 -173 199 -159 199 8 0 204
-211 436 -470 401 -446 425 -471 488 -502 56 -27 77 -32 142 -33 48 0 97 7
133 19 54 17 60 18 98 2 83 -33 179 -31 273 6 l28 11 -6 96 c-10 154 -12 552
-3 557 12 7 10 104 -2 104 -7 0 -10 228 -10 664 0 581 2 665 15 670 44 17 44
16 47 -396 l3 -390 28 -24 c42 -36 106 -33 149 5 l33 29 0 459 0 458 -26 55
c-33 70 -72 116 -128 152 -61 38 -76 36 -95 -13 -9 -22 -33 -66 -53 -97 -42
-66 -103 -190 -103 -210 0 -29 -31 -70 -61 -81 -18 -6 -77 -11 -133 -11 -135
0 -164 14 -186 90 -19 63 -55 136 -106 216 -19 30 -44 75 -54 99 -11 25 -21
45 -22 45 -2 0 -22 -9 -45 -20z m435 -1202 c9 -9 12 -130 12 -483 0 -495 -2
-518 -44 -502 -15 6 -16 51 -16 495 0 269 3 492 7 495 10 11 28 8 41 -5z
m-623 -425 c145 -131 205 -172 253 -173 20 0 22 -5 22 -51 l0 -51 -37 33 c-82
71 -413 372 -413 376 0 18 48 -19 175 -134z"/>
<path d="M1520 3247 c0 -9 -22 -19 -55 -26 -30 -7 -55 -16 -55 -21 0 -5 -13
-17 -29 -26 -17 -10 -42 -42 -59 -75 l-29 -57 45 -6 c25 -3 134 -6 243 -6 218
0 212 -2 184 61 -24 56 -97 118 -155 132 -27 6 -50 17 -50 24 0 7 -9 13 -20
13 -11 0 -20 -6 -20 -13z"/>
<path d="M1288 3024 c-5 -4 -8 -22 -8 -41 l0 -33 260 0 260 0 0 35 0 35 -55 0
c-39 0 -56 -4 -63 -16 -5 -10 -27 -18 -55 -21 -39 -5 -47 -2 -59 16 -16 26
-32 27 -58 1 -27 -27 -83 -27 -110 0 -21 21 -99 38 -112 24z"/>
<path d="M1280 2918 l0 -23 257 3 c142 2 262 7 267 12 26 26 -13 30 -265 30
l-259 0 0 -22z"/>
<path d="M1202 2895 c-29 -7 -60 -20 -70 -29 -10 -9 -24 -16 -30 -16 -13 0
-42 -51 -42 -74 0 -8 -6 -16 -12 -19 -10 -3 -12 -84 -9 -372 l3 -368 26 -24
c29 -27 102 -32 124 -9 50 53 48 38 48 337 0 220 3 280 13 277 9 -4 13 -168
17 -759 3 -477 9 -760 15 -770 41 -64 190 -66 221 -2 5 10 11 218 14 463 4
387 7 445 20 445 13 0 16 -58 20 -445 3 -245 9 -453 14 -463 21 -43 143 -62
197 -30 15 9 33 30 39 46 6 20 10 290 10 773 0 737 0 744 20 744 20 0 20 -7
20 -288 l0 -287 25 -28 c37 -39 93 -38 135 4 l31 31 -3 372 c-3 354 -4 372
-23 395 -45 53 -79 81 -113 90 -15 3 -164 4 -332 1 -220 -4 -308 -2 -315 6 -7
9 -24 8 -63 -1z"/>
</g>
</svg>
